<?xml version="1.0" encoding="UTF-8"?><svg id="Layer_2" xmlns="http://www.w3.org/2000/svg" viewBox="0 0 40 40"><defs><style>.cls-1{fill:#183849;stroke-width:0px;}</style></defs><g id="Layer_1-2"><g id="Communication_Chat_Circle"><g id="Vector"><path class="cls-1" d="M20,40c-3.46,0-6.87-.9-9.87-2.6l-4.46,1.49c-1.28.43-2.12.71-3.09.36-.86-.31-1.52-.97-1.82-1.82-.35-.97-.07-1.81.36-3.09l1.49-4.47c-1.7-3-2.6-6.41-2.6-9.87C0,8.97,8.97,0,20,0s20,8.97,20,20-8.97,20-20,20ZM10.25,33.31c.27,0,.53.04.8.11.36.1.62.25.96.44h.02c2.42,1.4,5.18,2.14,7.98,2.14,8.82,0,16-7.18,16-16S28.82,4,20,4,4,11.18,4,20c0,2.81.74,5.57,2.13,7.98l.02.04c.18.32.33.58.43.93.09.33.13.66.1,1.01-.02.38-.12.67-.24,1.01l-1.29,3.86,3.85-1.28c.35-.12.64-.21,1.02-.24.07,0,.14,0,.21,0Z"/></g></g></g></svg>