<?xml version="1.0" encoding="UTF-8"?><svg id="Layer_2" xmlns="http://www.w3.org/2000/svg" viewBox="0 0 32 32"><defs><style>.cls-1{fill:#338a77;stroke-width:0px;}</style></defs><g id="Layer_1-2"><path class="cls-1" d="M12.8,32c-.21,0-.41-.04-.61-.12-.6-.25-.99-.83-.99-1.48v-10.14c0-.16,0-.32,0-.4-.06-.06-.17-.18-.28-.28L1.22,9.88c-.33-.33-.55-.55-.75-.87-.18-.29-.3-.6-.38-.92-.09-.37-.09-.68-.09-1.14v-2.78c0-1.04,0-1.73.35-2.41.31-.61.79-1.09,1.4-1.4.68-.35,1.37-.35,2.41-.35h23.68c1.04,0,1.73,0,2.41.35.61.31,1.09.79,1.4,1.4.35.68.35,1.37.35,2.41v2.78c0,.47,0,.78-.09,1.14-.08.33-.21.64-.38.93-.2.32-.42.54-.75.87l-9.7,9.7c-.11.11-.22.22-.28.28,0,.08,0,.24,0,.4v3.74c0,.42-.17.83-.47,1.13l-6.4,6.4c-.31.31-.72.47-1.13.47ZM3.2,7.34c.05.06.17.17.28.28l9.7,9.7c.33.33.55.55.75.87.18.29.3.6.38.93.09.37.09.68.09,1.14v6.28l3.2-3.2v-3.08c0-.47,0-.78.09-1.14.08-.33.21-.64.38-.93.2-.32.42-.54.75-.87l9.7-9.7c.11-.11.22-.22.28-.28,0-.08,0-.24,0-.4v-2.78c0-.37,0-.75-.02-.94-.19-.02-.57-.02-.94-.02H4.16c-.37,0-.75,0-.94.02-.02.19-.02.57-.02.94v2.78c0,.16,0,.32,0,.4ZM11.22,19.89s0,0,0,0c0,0,0,0,0,0ZM20.78,19.89s0,0,0,0c0,0,0,0,0,0ZM11.19,19.83s0,0,0,0c0,0,0,0,0,0ZM20.81,19.83s0,0,0,0c0,0,0,0,0,0ZM3.21,7.37s0,0,0,0c0,0,0,0,0,0ZM28.82,7.31s0,0,0,0h0ZM28.88,3.23s0,0,0,0c0,0,0,0,0,0ZM3.12,3.23s0,0,0,0c0,0,0,0,0,0Z"/></g></svg>