<?xml version="1.0" encoding="UTF-8"?><svg id="Layer_2" xmlns="http://www.w3.org/2000/svg" viewBox="0 0 39.25 40"><defs><style>.cls-1{fill:#183849;stroke-width:0px;}</style></defs><g id="Layer_1-2"><g id="Navigation_House_02"><g id="Vector"><path class="cls-1" d="M30.1,40H9.15c-2.7,0-4.18,0-5.58-.71-1.24-.63-2.23-1.62-2.86-2.86-.71-1.4-.71-2.89-.71-5.59v-11.66c0-1.27,0-2.03.21-2.84.19-.71.49-1.39.92-2.02.48-.7,1.05-1.2,2-2.03L13.6,3.12c1.8-1.58,2.8-2.45,4.17-2.85,1.21-.36,2.5-.36,3.71,0,1.37.41,2.37,1.27,4.17,2.85l10.47,9.16c.95.83,1.52,1.33,2,2.03.42.62.73,1.3.92,2.02.21.81.21,1.58.21,2.84v11.67c0,2.7,0,4.18-.71,5.58-.63,1.24-1.62,2.22-2.86,2.86-1.4.71-2.88.71-5.58.71ZM19.63,4.36c-.21,0-.42.03-.62.09-.46.14-1.28.86-2.53,1.95L6,15.57c-.74.65-1.11.97-1.26,1.2-.14.21-.24.43-.3.67-.07.27-.07.83-.07,1.74v11.66c0,1.89,0,3.14.24,3.61.21.41.54.74.95.95.47.24,1.71.24,3.6.24h20.95c1.89,0,3.13,0,3.6-.24.41-.21.75-.55.95-.95.24-.47.24-1.71.24-3.6v-11.67c0-.91,0-1.46-.07-1.74-.06-.24-.16-.47-.3-.67-.15-.23-.52-.55-1.26-1.2l-10.47-9.16c-1.26-1.1-2.08-1.82-2.54-1.96-.2-.06-.41-.09-.62-.09Z"/></g></g></g></svg>