<?xml version="1.0" encoding="UTF-8"?><svg id="Layer_2" xmlns="http://www.w3.org/2000/svg" viewBox="0 0 40 40"><defs><style>.cls-1{fill:#183849;fill-rule:evenodd;stroke-width:0px;}</style></defs><g id="Layer_1-2"><g id="Page-1"><g id="Dribbble-Light-Preview"><g id="icons"><path id="profile_round-_1342_" class="cls-1" d="M33.13,36H6.88c-1.41,0-2.46-1.39-1.92-2.68,2.47-5.93,8.28-9.32,15.05-9.32s12.58,3.4,15.05,9.32c.53,1.28-.51,2.68-1.92,2.68M11.83,12c0-4.41,3.66-8,8.17-8s8.17,3.59,8.17,8-3.66,8-8.17,8-8.17-3.59-8.17-8M39.91,35.27c-1.48-6.72-6.13-11.68-12.24-13.93,3.24-2.55,5.13-6.68,4.43-11.21C31.3,4.89,26.85.7,21.47.08,14.05-.76,7.75,4.9,7.75,12c0,3.78,1.79,7.15,4.58,9.35C6.21,23.6,1.57,28.55.09,35.27c-.54,2.44,1.47,4.73,4.02,4.73h31.78c2.55,0,4.56-2.29,4.02-4.73"/></g></g></g></g></svg>