<?xml version="1.0" encoding="UTF-8"?><svg id="Layer_2" xmlns="http://www.w3.org/2000/svg" viewBox="0 0 42.18 40"><defs><style>.cls-1{fill:#183849;stroke-width:0px;}</style></defs><g id="Layer_1-2"><g id="Interface_Settings"><g id="Vector"><path class="cls-1" d="M27.12,40c-.42,0-.84-.05-1.26-.14-.91-.2-1.6-.62-2.87-1.38l-.84-.5c-.28-.15-.58-.24-.88-.25h-.19s-.19,0-.19,0c-.3,0-.6.09-.87.24l-.84.5c-1.26.75-1.95,1.17-2.85,1.37-.8.18-1.62.19-2.43.02-.91-.19-1.61-.59-2.88-1.32l-.95-.55c-1.28-.73-1.98-1.14-2.6-1.83-.55-.61-.95-1.32-1.2-2.11-.28-.89-.26-1.75-.24-3.17v-.98c0-.3-.07-.6-.21-.86l-.2-.35c-.16-.25-.38-.47-.64-.63l-.86-.48c-1.28-.71-1.98-1.1-2.61-1.78-.56-.6-.97-1.31-1.23-2.09C0,22.82,0,21.97,0,20.56v-1.08c0-1.43,0-2.29.28-3.17.26-.79.67-1.5,1.24-2.1.63-.68,1.34-1.07,2.62-1.79l.79-.43c.34-.2.56-.42.72-.68l.19-.32c.14-.27.22-.57.23-.88l-.02-1c-.02-1.42-.04-2.27.24-3.16.24-.79.64-1.5,1.19-2.11.61-.69,1.35-1.12,2.57-1.83l.95-.55s.02-.01.03-.02c1.21-.71,1.95-1.13,2.86-1.32.81-.17,1.63-.16,2.44.02.9.2,1.6.62,2.86,1.37l.85.51c.27.15.57.24.88.25h.19s.19,0,.19,0c.3,0,.6-.09.87-.24l.84-.5s.03-.02.04-.02c1.24-.74,1.92-1.15,2.82-1.35.81-.18,1.62-.19,2.43-.02.91.19,1.61.59,2.88,1.32l.95.55c1.23.71,1.98,1.14,2.6,1.83.55.61.95,1.33,1.2,2.12.27.88.26,1.68.24,3.14l-.02,1.01c0,.3.08.61.23.88l.15.27c.19.31.42.53.68.69l.86.48h0c1.31.73,2,1.12,2.61,1.78.56.6.97,1.31,1.23,2.09.29.88.29,1.69.3,3.15v1.1c0,1.42,0,2.27-.28,3.15-.26.79-.67,1.49-1.23,2.1-.63.68-1.34,1.08-2.63,1.79l-.85.47c-.27.16-.49.38-.65.64l-.19.33c-.14.26-.22.57-.23.88v1.03c.04,1.4.05,2.25-.22,3.13-.24.79-.65,1.5-1.19,2.11-.61.69-1.31,1.09-2.57,1.83l-.95.55c-1.27.74-1.97,1.15-2.88,1.34-.39.08-.78.12-1.17.12ZM21.09,33.89h.31c.92.03,1.82.28,2.62.73.05.03.11.06.2.12l.75.45c.89.54,1.43.86,1.73.93.27.06.54.06.81,0,.3-.06.84-.38,1.74-.9l.95-.55c.89-.52,1.43-.83,1.63-1.06.18-.2.32-.45.4-.7.09-.29.08-.91.06-1.93v-.84c-.02-.15-.02-.23-.02-.31.01-.92.25-1.83.68-2.63l.15-.26c.08-.15.12-.21.17-.28.47-.77,1.15-1.43,1.93-1.9l.22-.12s.09-.05.12-.06l.62-.35c.91-.51,1.46-.81,1.67-1.04.19-.2.32-.44.41-.7.09-.29.09-.91.09-1.93v-1.11c0-1.03,0-1.66-.1-1.95-.09-.26-.23-.49-.41-.7-.21-.23-.75-.53-1.65-1.03h0s-.7-.39-.7-.39c-.13-.07-.2-.11-.27-.15-.79-.47-1.45-1.13-1.93-1.9l-.15-.26c-.08-.14-.12-.21-.16-.28-.43-.8-.67-1.71-.68-2.63,0-.08,0-.16,0-.32v-.81c.03-1.03.04-1.65-.05-1.94-.08-.26-.22-.5-.4-.7-.21-.23-.75-.55-1.65-1.06l-.95-.55c-.9-.52-1.44-.83-1.74-.89-.27-.06-.54-.05-.81,0-.3.07-.83.39-1.71.91-.01,0-.03.02-.04.02l-.92.55c-.79.44-1.69.69-2.6.72h-.31s-.31,0-.31,0c-.92-.03-1.82-.28-2.62-.72l-.95-.57c-.9-.54-1.43-.86-1.73-.93-.27-.06-.54-.06-.81,0-.31.06-.85.38-1.74.9,0,0-.02.01-.03.02l-.91.53c-.9.52-1.44.83-1.64,1.06-.18.2-.32.44-.4.7-.09.3-.08.92-.07,1.95l.02.9c0,.09,0,.15,0,.22-.01.91-.25,1.83-.69,2.63l-.3.52c-.49.79-1.16,1.45-1.95,1.92l-.96.54c-.91.51-1.46.81-1.67,1.04-.19.2-.33.44-.41.7-.1.3-.1.93-.09,1.96v1.08c0,1.08.01,1.66.11,1.95.09.26.23.5.41.69.21.23.75.53,1.66,1.03l.69.38c.17.1.24.13.31.17.76.46,1.43,1.12,1.91,1.89.05.07.09.15.17.3l.15.27c.42.81.65,1.7.67,2.6v1.11c-.03,1.04-.04,1.66.05,1.96.08.26.22.5.4.7.21.23.75.55,1.65,1.06l.95.55c.9.52,1.44.83,1.74.89.27.06.54.05.81,0,.3-.07.84-.39,1.72-.92l.93-.55c.82-.45,1.72-.7,2.63-.73h.31Z"/><path class="cls-1" d="M21.09,29.59c-5.29,0-9.59-4.3-9.59-9.59s4.3-9.59,9.59-9.59,9.59,4.3,9.59,9.59-4.3,9.59-9.59,9.59ZM21.09,14.25c-3.17,0-5.75,2.58-5.75,5.75s2.58,5.75,5.75,5.75,5.75-2.58,5.75-5.75-2.58-5.75-5.75-5.75Z"/></g></g></g></svg>