<?xml version="1.0" encoding="UTF-8"?><svg id="Layer_2" xmlns="http://www.w3.org/2000/svg" viewBox="0 0 759.58 151.43"><defs><style>.cls-1{fill:#3d9481;stroke-width:0px;}</style></defs><g id="Layer_1-2"><path class="cls-1" d="M120.67,14.76l-.17,1.36-.45-1.23.41-.28c-1.29-.95-2.63-1.87-3.99-2.74-.13-.07-.26-.17-.39-.24C104.99,4.65,91.98.45,78.06.04h-.02l-.6.62c.09-.28.06-.49-.07-.63-.35,0-.69-.02-1.05-.02.39.82.73,1.72,1.72,2.41l-1.19-.22s0,.07,0,.11c-.24-.09-.47-.09-.63-.11-.88,1.77,1.77.6.69,1.33-.99-.28-1.74-.69-1.23-1.66.09.3.28.34.54.34.02-.04.04-.07.06-.11l.58.11c.07-.99-.47-1.57-.93-2.18h-.15C33.99,0,0,33.99,0,75.78v6.1h151.56v-6.1c0-24.99-12.17-47.2-30.89-61.02ZM134.91,35.54c-.63.11-2.17,1.16-2.86.07.07-.67.95-1.27-.21-1.72,1.16.45,2.18.37,3.06,1.64ZM135.43,37.98c-1.03.07-2.02,1.68-2.41-.24l2.41.24ZM129.39,30.59l-.19,1.68-.41-.04c.04-.34-.24-1.38.6-1.64ZM126.6,31.25c-.06.04-.09.06-.15.09l-2.5-1.08.9-.02,1.94-.06c-.04-.45-.24-.77-.54-1.03,1.05.62,1.75,1.23.35,2.09ZM125.33,28.63c-1.08-.41-2.37-.45-2.31-.86l.88-.6c.07.58.71,1.05,1.44,1.46ZM123.79,26.32c-.47.63-1.42.04-2.18-.37.75-1.12,1.38.3,2.18.37ZM122.16,29.92l-.45.3-.6-1.77,1.05,1.47ZM119.55,17.4c.32.73.95.62,1.34.65l.3-.84.43,1.59c-.77-.41-2.48.45-2.07-1.4ZM121.34,19.32c-.63.06-1.29.09-2.02.11-.34-.34-.62-.86-.9-1.38.97.41,1.94.82,2.91,1.27ZM119.9,25.57c-.47.41-.32,1.1-.32,1.61-.02.45-.13.78-.84.71.34-.45.37-.75.22-.93-.15-.24-.6-.34-1.08-.43,1.57.21-.22-1.68-.15-2.31.73.39,1.33,2.02,2.17,1.36ZM116.39,12.06l.63.86c-.52-.15-.71-.5-.63-.86ZM115.89,14c-1.57-.49-1.59,1.38-2.41-.24.8.09,2.59-1.44,2.41.24ZM101.07,6.98l-1.62-.15c.62-.41.37-.11,1.62.15ZM82.95,1.85c.41.47.86.95.69,1.44l-.6-.22c-.3.82.24,1.38.8,1.94-1.96-1.12-.77-2.05-.9-3.15-.26-.32-.5-.62-.47-.88.3.3.43.6.47.88ZM80.61,6.57l-.45.3c-1.01-1.79-2.18-.37-2.35-2.43l2.8,2.13ZM15.96,69.66h-3.43c1.38-14.37,7.56-27.36,16.97-37.35,11.57-12.36,28.03-20.08,46.27-20.08,16.24,0,31.08,6.12,42.31,16.18-3.42,5.54-7.71,10.47-12.77,14.61-3.96,3.27-8.29,5.97-12.92,8.1-1.42.67-2.86,1.27-4.33,1.81-.97-.9-1.94-1.81-2.89-2.74-7.2-7.04-13.85-15.01-19.71-23.69l-10.21.11c-6.64,10.38-14.22,19.88-22.53,28.28-5.26,5.36-10.9,10.32-16.76,14.76ZM110.85,51.93c-.21-.22-.09-.82-.21-1.16l-.88.02c.6-.39.8-.3.88-.02l.54-.02c-.07.67.52.91-.34,1.18ZM73.48,50.26c.32.71.95.6,1.34.63l.3-.82.43,1.57c-.77-.41-2.48.45-2.07-1.38ZM75.28,52.19c-.63.04-1.29.09-2.02.09-.34-.34-.62-.86-.9-1.36.97.39,1.94.82,2.91,1.27ZM73.99,47.74l.65-.43-.21,1.68-.45-1.25ZM70.96,45.77c-.52-.15-.71-.49-.63-.86l-.6-.78,1.42-.04c-.49.19-.75.5-.82.82l.63.86ZM64.32,36.62c-1.44.04-3.23-.3-4.89-1.66,2.39-.52,2.99,2.09,4.7.99l-.11-.37c.17.04.28.07.41.13.13-.13.28-.22.45-.39l1.85,1.53c-1.55.49-1.05-.69-2.3-1.14-.11.07-.21.19-.3.24l.19.67ZM61.63,38.75l.69-.78,1.81,1.89c-.97-.26-4.78-.8-4.22-2.11l1.25-.22c-.04.34-.11,1.01.47,1.23ZM68.85,39.44c-.3.82-1.49.71-.41,1.83l-2.95-.78c.56-1.31,1.75-1.19,3.36-1.05ZM69.83,46.85c-1.57-.49-1.59,1.38-2.41-.22.8.07,2.59-1.46,2.41.22ZM55.01,39.83l-1.61-.15c-.06.04-.13.09-.22.15l-.19-.19.41.04c.58-.39.35-.11,1.61.15ZM41.42,63.48c3.77-3.81,7.39-7.84,10.86-12.06-.91-.56-1.85-.69-2.2-2.33v-.02h.06c1.57-.26,1.94.97,3.1,1.19,2.52-3.12,4.96-6.33,7.3-9.63,4.82,6.35,10,12.3,15.53,17.75.54-.11,1.05.73,1.66.78-.15.21-.34.28-.56.28.21.21.43.41.65.62l.02-.02s0,.02.02.04c.5.5,1.01.99,1.51,1.44l.02.02c.43.41.86.8,1.29,1.18-.09-.28-.26-.5-.49-.69.69.41,1.23.8,1.12,1.27.47.43.91.84,1.4,1.25,0-.41.07-.91.62-1.1l-.17,1.49c1.05.91,2.11,1.81,3.17,2.69.11-.34.09-.63-.54-.88,1.16.45,2.18.37,3.06,1.66-.26.04-.65.22-1.08.37.35.3.73.6,1.1.88h-53.85c2.18-2,4.31-4.05,6.4-6.18ZM86.96,70.61l2.41.22c-1.03.07-2.02,1.68-2.41-.22ZM93.55,69.66c-.15.28-.11.58-.26.69l-.52-.69-.71-.95c.58.22,1.42-.04,1.75.67-.11.07-.21.17-.26.28ZM99.35,51.35c-.84.26-1.64.17-2.59-.43l2.59.43ZM110.42,69.66c-4.05-2.41-8.01-5.06-11.83-7.95,5.17-2.48,10.02-5.56,14.48-9.24,5.21-4.27,9.74-9.24,13.55-14.76,6.83,9.07,11.27,20.05,12.41,31.95h-28.61ZM139.35,37.5l-1.23-1.66c.58.24,1.42-.02,1.75.69-.45.3-.3.82-.52.97Z"/><path class="cls-1" d="M139.89,102.53h-.09l.11.26c-.02-.07-.04-.17-.02-.26Z"/><path class="cls-1" d="M0,69.53v6.1c0,41.79,33.99,75.8,75.76,75.8s75.8-34.01,75.8-75.8v-6.1H0ZM83.99,79.23c-1.06-1.12-1.92-2.31-3.66-2.65,1.72,0,3.19,2.07,3.66,2.65ZM76.64,76.92l.84,2.24c-.43-.69-2.28-.99-.84-2.24ZM61.67,79.92c-.5.19-.77.52-.84.84l.65.84c-.54-.13-.73-.49-.65-.84l-.58-.8,1.42-.04ZM59.37,75.28c-.3.84-1.51.71-.43,1.83l-2.95-.78c.56-1.31,1.77-1.19,3.38-1.05ZM54.63,71.8l-.09-.39c.15.04.28.09.39.13.15-.11.28-.21.45-.39l1.85,1.55c-1.53.47-1.05-.69-2.3-1.16-.09.07-.21.19-.3.26l.19.67c-1.42.02-3.21-.32-4.87-1.66,2.39-.52,2.99,2.07,4.68.99ZM52.13,74.6l.71-.78,1.81,1.87c-.99-.26-4.78-.78-4.22-2.11l1.23-.21c-.04.34-.11,1.01.47,1.23ZM43.92,75.52c.58-.39.34-.11,1.61.15l-1.61-.15c-.06.04-.13.09-.22.15l-.19-.19.41.04ZM27.38,70.55c.41.47.86.95.69,1.44l-.58-.22c-.3.82.24,1.38.78,1.94-1.94-1.12-.75-2.05-.9-3.15ZM25.05,75.28l-.43.3c-1.01-1.79-2.2-.37-2.37-2.45l2.8,2.15ZM20.12,70.55c.09.3.26.34.52.34.02-.04.04-.07.06-.11l.58.11s0,.07,0,.11c-.24-.09-.45-.09-.63-.11-.86,1.77,1.79.58.71,1.31-.99-.26-1.75-.67-1.23-1.64ZM11.48,111.91c.58-.39.35-.11,1.61.15l-1.61-.15ZM17.99,109.97l1.25-.22c-.04.34-.11,1.01.47,1.23l.69-.78,1.81,1.89c-.97-.26-4.78-.8-4.22-2.11ZM17.51,107.19c.32-.07.62-.07.86-.06,1.36.13,2.05,1.33,3.02,1.33.26,0,.52-.09.82-.28l.19.67c-.24,0-.5,0-.78-.02-.86-.07-1.81-.28-2.78-.78-.45-.22-.88-.5-1.33-.86ZM25.5,118.86c.8.07,2.59-1.46,2.41.22-1.57-.49-1.59,1.38-2.41-.22ZM30.76,132.97c.77-1.03-.02-1.19-.86-1.36,1.57.21-.22-1.68-.15-2.3.73.39,1.33,2,2.17,1.34-.86.78.37,2.46-1.16,2.31ZM30.44,123.15c.97.39,1.94.82,2.91,1.27-.63.04-1.29.09-2.02.09-.34-.34-.62-.86-.9-1.36ZM33.73,135.3l-.6-1.75,1.05,1.46-.45.3ZM33.62,131.03c.75-1.12,1.38.3,2.18.37-.47.63-1.42.04-2.18-.37ZM35.03,132.88l.88-.6c.07.56.71,1.03,1.44,1.44-1.08-.39-2.37-.45-2.31-.84ZM38.47,136.42l-2.5-1.08,2.84-.07c-.04-.45-.24-.77-.54-1.01,1.08.63,1.81,1.25.21,2.17ZM41.21,137.37l-.41-.04c.04-.34-.24-1.38.6-1.66l-.19,1.7ZM44.07,140.7c.07-.67.95-1.27-.21-1.72,1.16.45,2.18.37,3.06,1.66-.63.09-2.17,1.16-2.86.06ZM45.04,142.84l2.41.22c-1.03.07-2.02,1.68-2.41-.22ZM51.37,142.58l-1.23-1.64c.58.22,1.42-.04,1.75.67-.45.3-.3.82-.52.97ZM122.5,121.15c-.43.3-.3.82-.52.97l-1.21-1.64c-11.5,11.55-27.42,18.72-45,18.72-16.28,0-31.13-6.14-42.39-16.26l.26.93c-.77-.41-2.48.45-2.07-1.38.32.71.95.6,1.36.63l.15-.45c-3.23-2.95-6.16-6.22-8.72-9.76l-.78-.21c.07-.19.17-.34.28-.47-.69-.97-1.34-1.96-1.98-2.97.49-.24,1.01-.47,1.51-.65-.19-.24-.41-.52-.88-.69.15-.13.28-.22.45-.39l1.01.82c4.31-1.75,8.68-2.71,13.05-2.84,4.42-.11,6.63.62,9.69,1.64s6.87,2.3,13.03,2.71c9.16.62,14.67-1.21,19.52-2.8,1.47-.49,2.84-.93,4.24-1.29l-.93-1.25c.6.22,1.44-.04,1.75.69-.19.11-.26.28-.32.43,2.65-.63,5.49-.91,9.44-.43,4.2.49,6.42,1.46,8.98,2.56,2.99,1.31,6.38,2.76,12.23,3.4,1.74.19,3.47.28,5.23.28,2.95,0,5.94-.28,8.92-.82-2.33,3.55-5.02,6.83-8.01,9.84.58.22,1.4-.04,1.72.67ZM73.84,99.3l-.21,1.68-.39-.04c.04-.34-.24-1.38.6-1.64ZM78.78,100.87s-.02-.02-.02-.02h.06c1.81-.3,2.03,1.38,3.68,1.19l-.28,2.37c-1.19-2-2.91-1.14-3.43-3.55ZM79.87,106.69c-1.01.06-2.02,1.68-2.41-.24l2.41.24ZM79.34,104.24c-.62.11-2.17,1.16-2.86.07.09-.67.97-1.27-.21-1.74,1.18.47,2.2.39,3.06,1.66ZM98.53,98.63c-1.57-.49-1.59,1.38-2.41-.22.8.07,2.59-1.46,2.41.22ZM98.44,95.88l1.42-.02c-.49.19-.77.5-.82.82l-.6-.8ZM103.53,102.68l.3-.82.43,1.57c-.77-.41-2.48.45-2.07-1.38.32.71.95.6,1.34.63ZM102.68,99.52l.67-.45-.21,1.7-.47-1.25ZM103.98,103.96c-.63.04-1.29.09-2.03.09-.32-.34-.6-.86-.88-1.36.97.39,1.94.8,2.91,1.27ZM125.47,102.69l2.59.41c-.84.26-1.64.19-2.59-.41ZM115.95,99.04c-3.99-.43-6.07-1.33-8.66-2.46-3.02-1.31-6.44-2.78-12.41-3.49-9.02-1.06-14.56.77-19.45,2.39-1.98.65-3.84,1.27-5.92,1.7.09.06.17.11.26.17.35.13.67.3.91.52,1.08.63,1.81,1.27.22,2.18l-2.52-1.08,2.86-.07c-.04-.45-.26-.77-.56-1.03-.28-.17-.6-.34-.91-.52-.13-.06-.26-.09-.41-.13h-.02c-1.06.21-2.18.37-3.42.47l.67.93-.43.3-.43-1.21c-1.53.11-3.23.13-5.19,0-4.61-.32-7.22-1.18-9.99-2.11-3.43-1.14-7.32-2.45-13.91-2.26-6.85.21-13.64,1.89-20.23,5-2.03-5.23-3.36-10.79-3.92-16.57h126.53c-.47,4.85-1.47,9.54-2.99,14.02-6.83,2.87-13.59,3.98-20.1,3.27ZM139.56,103.68c-.21-.21-.09-.8-.21-1.14l-.88.02c.6-.39.8-.3.88-.02l.45-.02h.09c-.02.09,0,.19.02.26.04.47.37.67-.35.9ZM141.61,106.71l-.02-.04-.35-.6c.07.07.13.13.19.21.35.41.56.86.56,1.03l-.37-.6Z"/><path class="cls-1" d="M50.13,49.07s-.04.02-.06.02v-.02h.06Z"/><path class="cls-1" d="M77.85,60.08s-.04-.02-.04-.02l.02-.02s0,.02.02.04Z"/><path class="cls-1" d="M78.82,126.9s-.02,0-.04.02c0-.02-.02-.02-.02-.02h.06Z"/><path class="cls-1" d="M223.04,52.8c0,1.07-.08,1.07-.08,2.07s-.08.99-.08,1.98-.74,1.9-1.74,1.9c-1.07,0-1.07-.25-2.15-.25-.99,0-.99.17-2.07.17h-2.07c-1.07,0-1.07.08-2.07.08-1.07,0-1.07-.17-2.15-.17h-2.07c-.99,0-1.9.83-1.9,1.82v1.98c0,.99.08.99.08,1.98s.17.99.17,1.98-.08.99-.08,1.98v1.98c0,.99-.25.99-.25,1.98s.25.99.25,1.98.08.99.08,1.98-.17.99-.17,1.98c0,.91-.08.91-.08,1.9v1.98c0,.99.17.99.17,1.98s.17.99.17,1.98-.25.99-.25,1.98.08.99.08,1.98.08.99.08,1.98-.25.99-.25,1.98v3.97c0,.99.17.99.17,1.98s-.08.99-.08,1.98-.08.99-.08,1.98-.66,1.74-1.65,1.74c-1.08,0-1.08.17-2.07.17-1.07,0-1.07-.17-2.15-.17s-1.07.08-2.15.08-1.07-.08-2.07-.08c-1.07,0-1.07.08-2.15.08h-2.15c-.91,0-1.82-.83-1.82-1.82s.08-.99.08-1.98.08-.99.08-1.98v-1.98c0-.99-.17-.99-.17-1.98s.08-.99.08-1.98-.17-.99-.17-1.98.08-.99.08-1.98v-1.98c0-.99.08-.99.08-1.98v-1.98c0-.99-.17-.99-.17-1.98s.17-.99.17-1.98c0-.91.08-.91.08-1.9v-1.98c0-.99-.25-.99-.25-1.98s.25-.99.25-1.98-.25-.99-.25-1.98.17-.99.17-1.98-.17-.99-.17-1.98.25-.99.25-1.98-.25-.99-.25-1.98.25-.99.25-1.98-.91-1.82-1.82-1.82c-1.07,0-1.07.08-2.15.08-.99,0-.99.08-2.07.08h-2.07c-1.08,0-1.08-.08-2.15-.08-.99,0-.99-.17-2.07-.17h-2.07c-.99,0-1.65-.66-1.65-1.65s-.33-.99-.33-1.98.33-.99.33-2.07v-4.05c0-.99-.25-.99-.25-1.98s.91-1.9,1.9-1.9.99.08,1.9.08c.99,0,.99.17,1.98.17s.99-.08,1.98-.08c.91,0,.91-.25,1.9-.25s.99.25,1.98.25.99.08,1.9.08c.99,0,.99-.25,1.98-.25s.99-.08,1.98-.08c.91,0,.91.25,1.9.25s.99-.08,1.98-.08.99-.08,1.9-.08h3.97c.91,0,.91.25,1.9.25s.99-.33,1.98-.33.99.25,1.9.25h1.98c.99,0,.99-.25,1.98-.25s.99.33,1.9.33h3.97c.91,0,.91.08,1.9.08h1.98c.99,0,1.74.58,1.74,1.57,0,.99-.08.99-.08,1.98s.08.99.08,2.07c0,.99.17.99.17,1.98ZM189.98,52.64c-.08-.08-.41.33-.41.5,0,.25.08.41.17.66.08.25.33.33.5.08.33-.5,0-1.16-.25-1.24ZM194.69,50.82c-.08-.08-.25-.17-.33-.17-.08-.08-.33.17-.33.25s.08.25.08.33c.08.17.17.17.33.17.08-.08.17-.17.17-.17.17-.08.17-.33.08-.41ZM195.85,59.74c-.33.08-1.07.25-1.07.25-.08,0-.08.17,0,.25.5.41.91.74,1.24-.08.08-.17,0-.41-.17-.41ZM200.39,71.48c-.99-.25-1.9-.83-2.73.41-.17.25-.58-.08-.91-.08-.17,0-.33,0-.5.08-.17,0-.25.17-.17.33,0,.17.08.33.17.33,1.32,0,2.73.99,4.13-.41.17-.17.17-.58,0-.66ZM196.26,57.43c1.16-.08,2.31-.17,3.47-.74.08,0,.08-.17.08-.33s0-.25-.08-.33c-.5,0-1.08-.17-1.57.08-.41.33-.83.5-1.24.33-.25-.17-.58-.25-.74.5-.08.17,0,.5.08.5ZM198.41,79c-.08-.25-.17-.33-.25-.41-.41-.08-.74,0-1.07.33-.17.17-.08.58.08.58h1.16c.17,0,.25-.33.08-.5ZM198.24,89.25c-.33,0-.58-.08-.91-.08-.08-.08-.08.17,0,.25.25.5.5.74.91.17.08-.08.08-.25,0-.33ZM201.22,64.7c-.41-.74-.91-.58-1.16-.08-.41.66-.83.5-1.24.5-.33.08-.74-.08-1.08.17-.17.08-.17.5,0,.66.66.58,1.41.41,3.39-.66.17-.08.17-.33.08-.58ZM199.98,84.37c0-.08-.08-.08-.08-.08-.08-.08-.17,0-.17,0q-.08.08-.08.17c-.08.08-.08.17,0,.25.08,0,.17.08.25.08s.08-.08.17-.17,0-.25-.08-.25ZM200.39,62.06c.08,0,.33-.33.33-.5.08-.5-.17-.66-.41-.74-.08,0-.17.08-.17.25-.08.41-.08.83.25.99ZM203.78,54.21h-.91c-.08,0-.17,0-.17.17,0,.08.08.17.17.17.25.08.58.08.83.17.08,0,.17-.08.17-.17v-.08c.08-.08,0-.17-.08-.25ZM206.67,51.07c-.17.17-.33.25-.5.41,0,0,0,.17.08.17.17,0,.33.08.41,0,.08,0,.08-.17.17-.5.08-.08-.08-.17-.17-.08Z"/><path class="cls-1" d="M283.59,46.03c-.5.83-.41.91-.91,1.74-.5.91-.5.83-.99,1.74-.5.83-.41.91-.91,1.74-.5.83-.66.74-1.16,1.57-.5.83-.41.91-.91,1.74q-.5.83-.99,1.65c-.5.83-.41.91-.91,1.74-.5.83-.58.83-.99,1.65q-.5.83-.99,1.74t-.99,1.65c-.5.83-.58.83-1.07,1.65-.5.83-.33.91-.83,1.74-.5.83-.58.83-1.07,1.65-.5.83-.41.83-.91,1.74-.5.83-.58.74-1.07,1.57q-.5.91-.91,1.74c-.5.83-.33.99-.83,1.82q-.5.83-.99,1.65c-.5.91-.5.83-.99,1.74l-.99,1.65c-.5.83-.41.83-.91,1.74-.08.08-.17.17-.17.33v1.9c0,.91-.08.91-.08,1.9s.08.99.08,1.9c0,.99-.08.99-.08,1.9,0,.99.17.99.17,1.98,0,.91-.08.91-.08,1.9,0,.91-.08.91-.08,1.9,0,.91.17.91.17,1.9v1.9c0,.99-.17.99-.17,1.9,0,.99-.08.99-.08,1.98,0,.91.33.91.33,1.9,0,.41-.5.74-.91.74-1.07,0-1.07.08-2.15.08s-1.07.08-2.07.08c-1.07,0-1.07-.08-2.15-.08h-2.07c-1.07,0-1.07-.17-2.15-.17s-1.07.25-2.07.25c-1.08,0-1.08-.33-2.15-.33-.41,0-.74-.17-.74-.58,0-1.07-.08-1.07-.08-2.07s.08-.99.08-2.07c0-.99-.17-.99-.17-2.07v-1.98c0-1.07.08-1.07.08-2.07,0-1.07.08-1.07.08-2.07v-2.07c0-.99.08-.99.08-2.07v-1.98c0-1.07-.17-1.07-.17-2.07,0-1.07.17-1.07.17-2.07,0-.17,0-.33-.08-.41-.5-.91-.58-.83-1.07-1.65-.5-.83-.41-.91-.91-1.74-.5-.91-.58-.83-1.07-1.74-.41-.83-.41-.91-.91-1.74-.5-.83-.74-.74-1.24-1.57-.5-.83-.17-.99-.66-1.9q-.5-.83-.99-1.65c-.5-.91-.74-.74-1.24-1.57-.5-.91-.33-.99-.83-1.82-.5-.91-.5-.83-.99-1.74-.5-.83-.41-.91-.91-1.74-.5-.83-.74-.74-1.24-1.57-.5-.83-.33-.91-.83-1.82-.5-.83-.58-.74-1.07-1.65q-.5-.83-.99-1.74c-.5-.83-.33-.91-.83-1.74-.5-.91-.58-.83-1.07-1.74-.5-.83-.33-.91-.83-1.74-.5-.83-.66-.83-1.16-1.65-.5-.83-.33-.91-.83-1.82-.5-.83-.74-.66-1.24-1.57-.25-.5.17-1.32.74-1.32.99,0,.99.17,2.07.17.99,0,.99-.08,1.98-.08s.99-.08,1.98-.08c1.07,0,1.07.33,2.07.33s.99-.17,1.98-.17h2.07c.99,0,.99.08,1.98.08h1.98c.33,0,.66,0,.83.25q.41.83.91,1.74c.41.83.5.83.91,1.65q.5.91.91,1.74c.5.91.41.91.91,1.82.41.83.33.91.83,1.74.41.83.5.83.91,1.74.5.83.33.91.83,1.74.5.91.66.74,1.07,1.65.5.83.41.91.91,1.74.41.91.58.83,1.07,1.65.41.83.17.99.66,1.82.5.91.5.83.99,1.74.25.5,1.07.5,1.41,0,.41-.91.58-.83.99-1.74.5-.83.25-.91.74-1.82.41-.83.5-.83.99-1.65.41-.91.33-.91.74-1.82.5-.83.74-.74,1.16-1.57.5-.91.41-.91.91-1.74.5-.91.33-.91.83-1.82.41-.83.58-.74,1.07-1.65.5-.83.41-.83.91-1.74q.41-.83.91-1.74c.41-.83.33-.83.83-1.74.5-.83.66-.74,1.16-1.57.08-.25.17-.5.5-.5.91,0,.91.17,1.9.17s.99-.25,1.9-.25c.99,0,.99.08,1.9.08.99,0,.99.17,1.9.17.99,0,.99-.08,1.98-.08.91,0,.91-.08,1.9-.08h1.9c.99,0,.99-.08,1.9-.08.58,0,.91.66.66,1.16ZM242.1,60.24c0-.08-.25-.25-.33-.25-.17.08-.41.17-.5.33,0,.17.17.58.33.5.08,0,.17-.08.25-.08l.08-.08c.08-.08.17-.33.17-.41ZM246.89,60.57c.17-.08.17-.25.17-.41-.08,0-.08-.17-.17-.25-.08-.17-.33-.17-.33.08-.08.08-.08.25-.08.33s.17.33.17.33c.08,0,.17,0,.25-.08ZM247.72,64.54c-.25-.17-.41-.25-.58-.25-.08,0-.17.08-.25.25-.08.08-.08.25,0,.25.17.17.33.33.5.41.08,0,.17-.17.33-.33.08-.08.08-.25,0-.33ZM248.88,70.82c.25.17.58.17.91.25h.58c.5,0,1.07,0,1.57-.08,1.16-.08,2.31-.25,3.47-.5.99-.25,1.98-.5,2.97-.83.17,0,.5-.08.74-.25,0,0,.08-.08.08-.17s-.08-.17-.17-.25c-.17-.08-.33-.25-.5-.33-.17,0-.25,0-.41-.08-.74,0-1.49-.08-2.15-.17-.58,0-1.24-.08-1.74-.33-.41-.17-.91-.33-1.32-.5-.41-.08-.83-.25-1.24-.25-.17,0-.25,0-.33.17-.08.08-.08.17-.08.25,0,.17.08.17.17.25.08.08.25.17.33.17,0,.08.08.08.08.08,0,0,.08.08.08.17,0,.17-.08.25-.17.41-.17.25-.41.41-.66.58-.25.17-.58.33-.91.5-.25.08-.58.25-.83.33-.17,0-.5,0-.58.25v.17c0,.08.08.08.08.17ZM250.78,76.93c-.17,0-.33.08-.5.08h-.74c-.17,0-.33,0-.41.17-.08.17-.17.58-.08.74.08.08.33-.08.41-.08.17-.08.41-.17.58-.25.17-.08.41-.08.66-.25.17-.08.33-.33.08-.41ZM253.92,73.79c.91-.33,1.9-.58,2.81-.58.33-.08.66-.08.99-.17.33-.08.58-.25.66-.58-.99-.74-2.23-1.07-3.47-.91-.5.08-.91.17-1.41.33-.74.25-2.15.66-2.48,1.41-.08.25-.08.5,0,.66v.17c.08.25.33.25.58.33.83.08,1.57-.41,2.31-.66ZM256.73,80.16c-.5-.91-1.07-.91-1.65-.74-.66.17-1.16.33-1.82,0-.08-.08-.17-.08-.33,0s-.17.41,0,.5c1.32.66,2.48,1.16,3.72.66.08,0,.08-.08.08-.08v-.33ZM259.21,75.28c-1.57-.17-3.06-.17-4.63.17-.58.08-1.08.74-1.74,1.32,0,.08,0,.25.08.25,2.23,1.16,4.3-.08,6.28-1.41.17-.08.08-.33,0-.33ZM253.26,91.64h-.25c-.08.08-.17.08-.17.17v.17c0,.25.41.33.58.41.25.08.41,0,.5-.25.17-.41-.41-.5-.66-.5ZM256.56,87.43c-.33-.17-.83-.08-1.24,0-.25,0-.41.17-.5.41-.17.25.08.58.41.5.41-.08.74-.08,1.16-.17.33-.08.5-.5.17-.74ZM255.07,83.63c.41.25.83.08,1.41-.5.08-.17,0-.41-.08-.41-.5.17-1.07.41-1.32.58-.08.08-.08.33,0,.33ZM261.44,65.78c-.25-.17-.41-.17-.58.08-.08.08,0,.17,0,.17.25,0,.33-.08.5-.08.08,0,.08-.17.08-.17ZM265.98,61.81c-1.98-.74-2.89-.66-3.8.25-.17.17,0,.41.17.41,1.16-.08,2.31-.17,3.55-.25.33,0,.33-.33.08-.41ZM266.15,55.53c-.25-.08-.66-.17-1.07-.25-.25-.08-.41.25-.25.41.5.58.74.74,1.41.5.33-.08.33-.66-.08-.66Z"/><path class="cls-1" d="M336.95,66.85c0,.66-.08,1.32-.08,1.98-.08.74-.17,1.4-.25,2.07-.08.66-.08,1.32-.25,1.98-.17.66-.33,1.32-.58,1.9-.25.66-.58,1.24-.83,1.9-.33.58-.83,1.07-1.16,1.65-.33.58-.74,1.07-1.16,1.65-.41.5-.66,1.16-1.07,1.65-.5.5-.99.99-1.49,1.4-.5.5-1.16.66-1.74,1.07-.58.33-1.07.74-1.65,1.07-.66.33-1.16.74-1.82.99-.58.33-1.24.58-1.82.83-.66.25-1.32.41-1.98.58-.66.17-1.32.25-1.98.41-.66.08-1.41-.08-2.07,0-.66.08-1.32.17-1.98.25-.66,0-1.32.08-1.98.08-.99,0-.99.17-1.9.17-.99,0-.99-.25-1.9-.25s-.91.08-1.9.08c-.74,0-1.49.25-1.98.74-.5.5-.5,1.24-.5,1.98,0,.99-.17.99-.17,1.98s-.17.99-.17,2.07c0,.99.33.99.33,1.98s-.08.99-.08,1.98.08.99.08,2.07c0,.99-.17.99-.17,1.98,0,.74-.33,1.4-.74,1.9-.5.5-1.16.58-1.9.58-.91,0-.91.25-1.82.25s-.91-.08-1.82-.08-.91-.17-1.82-.17-.91.17-1.82.17-.91-.08-1.82-.08h-1.82c-.74,0-1.32-.25-1.82-.74-.5-.5-.91-1.07-.91-1.82v-3.97c0-.99-.08-.99-.08-1.98s.08-.99.08-1.98-.08-.99-.08-1.98.25-.99.25-1.98-.33-.99-.33-1.98.33-.99.33-1.98v-1.9c0-.99-.17-.99-.17-1.98s.08-.99.08-1.98.08-.99.08-1.98-.25-.99-.25-1.98.25-.99.25-1.98-.25-.99-.25-1.98.17-.99.17-1.98.08-.99.08-1.98-.08-.99-.08-1.98.08-.99.08-1.98-.17-.99-.17-1.98-.17-.99-.17-1.98.08-.99.08-1.98.08-.99.08-1.98-.08-.99-.08-1.9c0-.99.25-.99.25-1.98s-.17-.99-.17-1.98.17-.99.17-1.98-.17-.99-.17-1.98c0-.74.33-1.49.83-1.9.41-.5,1.16-.74,1.9-.74.99,0,.99-.08,1.98-.08h1.98c.99,0,.99.08,1.98.08s.99-.17,1.98-.17.99.17,1.98.17.99-.08,1.98-.08.99.08,1.98.08.99-.17,1.98-.17.99.25,1.98.25.99-.17,1.98-.17c1.07,0,1.07-.17,2.07-.17.66,0,1.32.08,1.98.17.74,0,1.41.17,2.07.25.66.08,1.32.17,1.98.33.66.08,1.41.08,1.98.25.74.17,1.24.66,1.9.83.66.25,1.32.33,1.98.58.58.25,1.16.74,1.74,1.07.58.33,1.24.58,1.82.91.58.41.91,1.07,1.41,1.49s1.07.91,1.49,1.32c.5.5.91.99,1.32,1.57.41.5.99.99,1.32,1.57.41.58.5,1.24.83,1.82.25.66.58,1.24.83,1.9.17.58.41,1.24.58,1.9s.5,1.32.58,1.98c.08.66,0,1.32,0,2.07.08.66.08,1.32.08,1.98ZM297.12,84.29c.33-.08.41-.5.17-.66-.58-.58-1.24-.41-1.9-.41-.25-.08-.41.41-.17.58.5.58,1.16.58,1.9.5ZM299.1,71.23c-1.16-.17-2.4-.25-3.55.33-.25.08-.17.5.08.5,1.16-.17,2.4-.08,3.55-.41.17-.08.17-.41-.08-.41ZM296.37,53.63c.25-.08.58-.17.83-.25.17-.08.17-.41.08-.58-.33-.33-.66-.25-.99.25-.17.17-.08.58.08.58ZM297.86,89.5c-.25-.25-.5-.41-.74-.58-.33-.08-.58.5-.33.74s.5.5.83.58c.33.08.58-.5.25-.74ZM298.85,62.55c-.66.08-1.32.5-1.98.83-.08.08-.08.17-.08.33,0,.08.08.17.17.17h2.07c.08,0,.17-.08.17-.17.17-.58.25-1.24-.33-1.16ZM297.86,77.84c-.58.17-.74.66-.25,1.07.08.08.33.17.41.08q.08-.08.17-.08c.41-.33.17-1.24-.33-1.07ZM298.11,57.51h2.4c.17,0,.25-.33.08-.41-1.32-.74-1.65-.74-2.56,0-.17.08-.08.41.08.41ZM301.25,66.69c-.25-.58-.66-.74-.99-.25-.17.08-.17.58-.08.58.41.41.74.17,1.07-.33ZM301.99,84.45c-.58-.25-1.07-.25-1.57.33-.17.25.08.58.33.5.41,0,.74-.08,1.16-.17.33-.08.41-.5.08-.66ZM301.25,74.45c-.25-.08-.33.25-.17.41.58.5.66-.25.17-.41ZM305.47,79.17c-.66-.41-1.07-1.74-1.98-1.4-.58.33-1.24.66-1.82,1.4-.17.17,0,.58.25.5.58-.17,1.07-.33,1.57-.33.66,0,1.24.25,1.82.41.17.08.25,0,.25-.17.08-.17,0-.33-.08-.41ZM305.14,82.88c-.25-.17-.41-.41-.5-.74-.41-.99-.99-.83-1.65-.33-.25.17-.25.58,0,.74.66.41,1.24.83,1.82,1.07.33.08.58-.5.33-.74ZM320.84,66.85c0-.66-.17-1.32-.25-1.9-.17-.66-.33-1.24-.58-1.82-.25-.58-.58-1.07-.99-1.57-.41-.5-.91-.83-1.4-1.24-.5-.33-.99-.66-1.65-.91-.58-.17-1.16-.25-1.82-.41-.66-.08-1.24-.33-1.9-.33-1.24,0-1.24.33-2.4.33-1.24,0-1.24-.25-2.48-.25-.74,0-1.49.25-1.98.74-.41.5-.66,1.24-.66,1.98v2.15c0,1.07-.08,1.07-.08,2.15s.17,1.07.17,2.07c0,1.07-.25,1.07-.25,2.15s.33,1.07.33,2.15c0,.74.08,1.49.58,1.9.5.5,1.16.91,1.9.91,1.24,0,1.24-.17,2.48-.08,1.16,0,1.16.08,2.4.08.66,0,1.24-.25,1.9-.33.66-.08,1.24-.17,1.82-.41.58-.17,1.24-.33,1.82-.66.5-.33.91-.91,1.32-1.4.33-.41.74-.99.99-1.57.25-.5.5-1.16.58-1.82.08-.58.17-1.24.17-1.9ZM310.18,79.66c0-.08-.08-.25-.17-.33h-.33c-.33.08-.41.33-.33.66.08.08.33.25.41.25.33,0,.5-.25.41-.58ZM316.46,51.65c.08.08.17.08.25,0h.08c.33-.25.17-.99-.17-.83-.41.17-.5.5-.17.83ZM320.34,80.57c.33-.08.25-.83-.08-.74-.5.08-.41.83.08.74h0ZM324.06,76.52c-.25,0-.58.08-.83.17-.33.08-.33.66,0,.74.33,0,.58-.08.91-.17.33-.17.25-.66-.08-.74ZM325.46,64.21c-.08-.17-.25-.33-.33-.58-.25-.74-.66-.66-1.07-.33-.17.17-.17.5,0,.66.41.25.83.58,1.24.83.17.08.33-.41.17-.58ZM325.3,56.6c.33.5.74.41,1.32.33.17,0,.17-.33.08-.5-.41-.41-.91-.25-1.32-.33-.17,0-.25.33-.08.5ZM327.94,71.31c-.5-.25-1.32-.5-2.07-.33-.33.08-.33.66-.08.74.58.17,1.4.33,2.07.33.33,0,.41-.58.08-.74ZM326.29,62.47c.25.08.41-.41.17-.58-.17-.17-.33-.33-.5-.41-.25-.08-.41.33-.17.58.17.17.33.33.5.41ZM327.61,66.36c-.5.08-.99.08-1.49.17-.08,0-.17.08-.17.25v.08c0,.08.08.17.17.17l1.49-.25c.08,0,.17-.08.17-.25,0-.08-.08-.17-.17-.17Z"/><path class="cls-1" d="M385.44,100.07v1.9c0,.91.08.91.08,1.9,0,.58-.25,1.07-.58,1.4-.41.41-.83.74-1.4.74-.99,0-.99-.25-1.98-.25s-.99.25-1.98.25h-1.98c-.99,0-.99-.17-1.98-.17s-.99.25-1.98.25h-1.98c-.99,0-.99-.17-2.07-.17-.99,0-.99.17-1.98.17s-.99-.25-1.98-.25h-3.97c-.99,0-.99.08-1.98.08s-.99-.17-1.98-.17h-1.98c-.99,0-.99.08-1.98.08h-1.98c-.99,0-.99.17-1.98.17s-.99-.08-1.98-.08-.99-.08-1.98-.08-.99.08-1.98.08c-.58,0-1.07-.33-1.41-.66-.41-.41-.83-.83-.83-1.4,0-.99.33-.99.33-1.98,0-.91-.25-.91-.25-1.9s.25-.99.25-1.98v-1.9c0-.99-.17-.99-.17-1.98s.17-.99.17-1.98v-3.88c0-.99-.17-.99-.17-1.98,0-.91.08-.91.08-1.9s-.08-.99-.08-1.98.08-.99.08-1.98c0-.91-.08-.91-.08-1.9s.17-.99.17-1.98-.25-.99-.25-1.9c0-.99-.08-.99-.08-1.98s.33-.99.33-1.98-.08-.99-.08-1.9c0-.99-.17-.99-.17-1.98s.08-.99.08-1.98c0-.91.08-.91.08-1.9s-.25-.99-.25-1.98.25-.99.25-1.98v-5.79c0-.99-.17-.99-.17-1.98s.25-.99.25-1.98-.08-.99-.08-1.9c0-.58.08-1.16.5-1.49.33-.41.91-.58,1.49-.58.99,0,.99-.08,1.98-.08s.99.08,2.07.08c.99,0,.99-.08,1.98-.08h2.07c.99,0,.99.08,1.98.08,1.07,0,1.07-.17,2.07-.17s.99.08,1.98.08h2.07c.99,0,.99-.08,1.98-.08h2.07c.99,0,.99.25,2.07.25.99,0,.99-.08,1.98-.08s.99.08,2.07.08h1.98c.99,0,.99-.17,2.07-.17h1.98c.99,0,.99.17,2.07.17.99,0,.99-.08,1.98-.08,1.07,0,1.07-.17,2.07-.17.58,0,.99.41,1.41.83.33.33.66.83.66,1.41,0,.91.08.91.08,1.9,0,.91.08.91.08,1.9s-.41.99-.41,1.9c0,.99.33.99.33,1.9,0,.99-.33.99-.33,1.98,0,.5-.08.91-.5,1.32-.33.33-.74.83-1.32.83-.99,0-.99-.08-2.07-.08-.99,0-.99.08-1.98.08s-.99-.25-2.07-.25c-.99,0-.99.25-1.98.25h-2.07c-.99,0-.99-.08-1.98-.08s-.99-.08-2.07-.08c-.99,0-.99-.17-1.98-.17s-.99.08-2.07.08c-.99,0-.99.25-1.98.25s-.99-.33-2.07-.33c-.5,0-1.16.33-1.49.66-.41.41-.58.99-.58,1.57,0,.99-.08.99-.08,1.98s.08.99.08,1.98.08.99.08,1.98c0,.5.33.99.66,1.32.33.33.83.83,1.32.83.99,0,.99-.25,1.98-.25s.99.25,1.98.25.99-.25,1.98-.25c1.08,0,1.08.17,2.07.17s.99.08,1.98.08.99-.08,1.98-.08.99-.17,1.98-.17.99.17,1.98.17h1.98c.58,0,1.07.17,1.41.58.41.33.58.83.58,1.4,0,1.07-.08,1.07-.08,2.23,0,1.07.25,1.07.25,2.23,0,1.07-.08,1.07-.08,2.15,0,1.16.08,1.16.08,2.23,0,.58-.41.99-.83,1.4-.33.33-.74.74-1.32.74h-1.98c-.99,0-.99-.08-1.98-.08h-1.98c-.99,0-.99.08-1.98.08-.99,0-.99.08-1.98.08s-.99-.08-1.98-.08c-1.07,0-1.07-.08-2.07-.08s-.99.08-1.98.08-.99-.08-1.98-.08c-.5,0-.99.25-1.4.66-.33.33-.58.83-.58,1.41,0,.99.08.99.08,2.07s.08,1.07.08,2.15-.25,1.07-.25,2.15c0,.58.25,1.07.58,1.49.41.33.99.58,1.49.58.99,0,.99-.17,1.98-.17s.99.17,1.98.17.99.08,1.9.08h3.97c.99,0,.99-.25,1.98-.25.91,0,.91.25,1.9.25s.99-.25,1.98-.25.99.17,1.98.17.99-.08,1.9-.08c.99,0,.99-.17,1.98-.17h1.98c.58,0,1.16.33,1.49.74.41.33.5.91.5,1.49v1.9c0,.99-.08.99-.08,1.9v1.98ZM349.41,56.77c1.57.74,1.9.74,2.31-.17.08-.25,0-.41-.17-.41-.74,0-1.41.08-2.07.08-.25,0-.33.41-.08.5ZM349.82,87.35c-.08-.08-.17-.17-.25-.17l-.08.08c-.08.08-.17.25,0,.33v.08c.08.08.25.08.33.08v-.08c.08-.08.08-.25,0-.33ZM350.07,53.88c.08,0,.08.08.17.08h.17c.25-.17.33-.5.08-.74-.08,0-.08-.08-.17-.08-.33,0-.5.5-.25.74ZM350.24,68.59s.08-.08.17,0c.74.41,1.49,0,2.31.25.17,0,.33-.17.41-.41,0-.25-.08-.58-.17-.58-.74.08-1.49.33-2.23-.41-.33-.33-.58.17-.66.99,0,.17.08.25.17.17ZM350.57,83.05c.5-.08,1.07,0,1.57-.25.33-.08.74-.17,1.07-.5.17-.17.08-.41-.17-.41-.17,0-.41,0-.58.08-.74.08-1.49.25-2.15.41-.25.08-.17.74.25.66ZM350.81,71.4c-.08-.08-.17-.17-.33-.25,0,0-.17.25-.17.41,0,.08.08.08.25.25h.17c0-.08.08-.17.17-.25,0-.08,0-.17-.08-.17ZM352.47,90.82v-.17h-.08c-.08-.08-.17-.08-.17-.17-.08,0-.17-.17-.17-.25v-.08q-.08-.08-.17-.08c-.33-.08-.74-.08-1.16,0q-.08.08-.17.17s0,.08.08.17c.08.5.08.58.58.58.17,0,1.24,0,1.24-.17ZM352.3,76.6c-.25.08-.5.08-.74.08-.17,0-.25.08-.25.25,0,0,.66.17.99.17.08.08.17-.08.25-.17,0-.17-.17-.33-.25-.33ZM351.48,66.6v.08s.08,0,.08.08c.41.25,1.07.17,1.49-.17.08-.08,0-.41-.17-.41-.33,0-.66,0-.99.08-.17,0-.74,0-.41.33ZM353.21,96.11c-.41-.41-1.74-.17-1.07.41,0,.08.08.08.17.08.08.08.17,0,.25,0,.17,0,.41,0,.58.17,0,0,.08.08.17,0v-.08c.17-.25.08-.41-.08-.58ZM353.54,79.25c.25-.08.5-.08.74-.08.08,0,.17-.17.08-.25-.41-.33-.5-.33-.91,0-.08.17,0,.33.08.33ZM354.53,92.47c-.33.17-.5.33-.91.41-.08,0-.08.17,0,.17.41.08,1.07.17,1.49-.08,0-.08.08-.17.08-.17.17-.33-.33-.58-.66-.33ZM355.94,71.64c-.83-.41-1.57-.5-2.15.25v.17c0,.17.08.33.08.41.08.17.17.17.25.17.58-.25,1.16-.5,1.82-.66.08-.08.08-.33,0-.33ZM354.04,60.65h1.08c.17,0,.25-.17.25-.41,0-.17-.17-.25-.33-.17-.25.08-.66.25-.99.33-.17.08-.17.33,0,.25ZM355.69,52.56c-.17.08-.33.17-.5.25-.08.08-.17.17-.17.33,0,.08.08.17.17.17.33.08.58,0,.74-.33.17-.17,0-.5-.25-.41ZM358.09,75.69c.25,0,.41-.08.5-.25.08-.08,0-.17-.08-.17-.83.08-1.57.08-2.4.17-.08,0-.08.08,0,.17.5.5.66.5,1.32.25.17-.17.41-.17.66-.17ZM356.1,56.27c.08.08.17.08.25.17.08.08.25,0,.25-.08.08-.17,0-.33-.08-.33-.08-.08-.17-.08-.33-.17,0,0-.17.33-.08.41ZM357.01,95.03c-.17-.17-.33-.33-.58-.41,0-.08-.08,0-.17,0-.08.08,0,.25.08.25.17.17.33.33.5.41.08.08.17,0,.17,0,0,0,0-.08.08-.08,0,0,0-.17-.08-.17ZM359.49,95.94c-.91.17-1.08.25-1.32.5-.08.08,0,.17.08.17.66.08.83,0,1.32-.5.08,0,.08-.17-.08-.17ZM360.4,74.04c.17.08.25.25.41.33.08.08.17,0,.17-.17,0-.41-.08-.5-.5-.41-.08,0-.17.17-.08.25ZM360.57,76.52c-.08.08-.08.17,0,.17.33.17.66.08.91-.17.08-.08.08-.25,0-.25-.41-.08-.66-.08-.91.25ZM363.54,75.53c.41.17.58.17.83-.08v-.08q0-.08-.08-.17s0-.08-.08-.08c-.17.08-.33.17-.66.25-.08,0-.08.08,0,.17Z"/><path class="cls-1" d="M470.45,46.27c-.41.91-.25.99-.66,1.9-.33.91-.58.83-.99,1.74-.33.91-.17.99-.5,1.9-.41.91-.33.91-.66,1.82-.41.91-.5.91-.83,1.82-.41.91-.5.91-.83,1.82-.41.91-.58.83-.91,1.74-.41.91-.17.99-.5,1.9-.41.99-.33.99-.74,1.9-.33.91-.83.74-1.16,1.65-.41.91-.25.99-.66,1.9-.33.91-.25.91-.66,1.82-.33.91-.25.99-.66,1.9q-.33.91-.74,1.82c-.33.91-.58.83-.99,1.74-.33.91-.25.99-.58,1.9-.41.91-.5.83-.83,1.82-.41.91-.5.83-.83,1.74-.41.91-.17.99-.58,1.9q-.33.91-.74,1.82c-.41.99-.58.91-.91,1.82-.41.91-.33.91-.74,1.82-.33.91,0,1.07-.33,1.98-.41.91-.66.83-.99,1.74-.41.91-.33.99-.66,1.9-.41.91-.66.74-.99,1.74-.41.91-.08.99-.41,1.9-1.32,3.22-2.4,6.36-3.55,9.59-.17.5-.33.91-.66,1.24-.25.33-.74.58-1.24.41-.41-.17-.66-.66-.83-1.07-.66-1.57-1.16-3.22-1.9-4.71-.41-.99-.33-.99-.74-1.9s-.66-.83-1.16-1.74c-.41-.91-.33-.91-.74-1.9-.41-.91-.33-.91-.74-1.82-.41-.91-.58-.83-.99-1.82-.41-.91-.33-.91-.74-1.82-.5-.91-.41-.91-.83-1.9-.5-.91-.33-.91-.83-1.82-.41-.91-.58-.83-.99-1.74s-.58-.91-.99-1.82c-.41-.91-.33-.91-.74-1.82-.41-.99-.33-.99-.74-1.9s-.41-.99-.83-1.9q-.41-.91-.83-1.82c-.25-.58-1.24-.5-1.57.08-.41.91-.5.83-.99,1.74-.41.91-.08,1.07-.5,1.98-.41.91-.33.91-.74,1.82-.41.99-.83.74-1.24,1.65-.41.99-.08,1.07-.5,2.07q-.41.91-.91,1.82c-.41.91-.66.74-1.07,1.65-.41.91-.5.91-.91,1.82q-.41.91-.83,1.82c-.41.99-.33.99-.74,1.9-.5.91-.25.99-.66,1.9s-.5.91-.91,1.82c-.33.91-.66,1.82-.99,2.64-.41,1.07-1.16,1.98-1.49,3.06-.41.91-.66,1.98-1.4,2.64-.17.25-.41.41-.66.5-.25.08-.41.08-.58,0-.58-.08-.83-.66-1.07-1.16-.99-1.98-1.9-4.13-2.64-6.2-.41-1.07-.74-2.15-1.16-3.14-.25-.66-.33-1.4-.58-2.07-.33-.91-.41-.91-.74-1.82-.41-.91-.25-.99-.58-1.9-.41-.91-.5-.83-.91-1.82q-.33-.91-.66-1.82c-.41-.91-.83-.74-1.16-1.65-.41-.91-.08-1.07-.41-1.98-.41-.91-.66-.83-1.07-1.74-.33-.91-.25-.91-.58-1.9-.41-.91-.5-.83-.83-1.74-.41-.99-.41-.91-.83-1.82-.33-.91-.08-1.07-.5-1.98-.33-.91-.66-.74-1.07-1.65-.33-.99-.08-1.07-.5-1.98-.33-.91-.58-.83-.91-1.74-.41-.91-.33-.91-.74-1.82-.41-.99-.5-.91-.91-1.82-.33-.91,0-1.07-.41-1.98q-.33-.91-.74-1.82c-.33-.91-.74-.74-1.07-1.65-.41-.91-.25-.99-.58-1.9-.41-.99-.33-.99-.74-1.9q-.33-.91-.66-1.82c-.41-.91-.5-.91-.91-1.82-.33-.91-.17-.99-.5-1.9-.41-.91-.66-.83-1.07-1.74q-.33-.91-.66-1.82c-.25-.5.17-1.16.66-1.16.99,0,.99-.08,1.9-.08.99,0,.99.33,1.98.33.91,0,.91-.08,1.9-.08h1.9c.99,0,.99.08,1.98.08.91,0,.91-.17,1.9-.17s.99.08,1.9.08c.99,0,.99-.25,1.98-.25.25,0,.66.33.83.58.33.99.08,1.07.5,1.98q.33.99.74,1.9c.33.91.41.91.83,1.82q.33.99.66,1.9c.41.99.66.91,1.07,1.82.33.91,0,1.07.33,1.98.41.99.58.91.99,1.82.33.99.17,1.07.5,1.98.41.91.74.83,1.07,1.74q.41.99.74,1.9c.41.99.25.99.58,1.98.41.91.58.83.91,1.82.41.91.33.91.74,1.9.33.91.41.91.83,1.82.25.66.83.66,1.16.08.41-.99.66-.83,1.07-1.74.41-.99,0-1.16.41-2.07.41-.91.66-.83,1.07-1.74.41-.99.5-.91.91-1.9.41-.91.17-.99.58-1.98.33-.91.74-.74,1.16-1.65.41-.99.33-.99.74-1.9.41-.91.25-1.07.66-1.98.33-.91.58-.83.99-1.74q.41-.99.83-1.9c.41-.91.08-1.07.5-1.98,0-.91.74-1.65.99-2.48.41-1.07.91-2.07,1.49-3.14.17-.33.41-.74.74-1.07.33-.25.83-.33,1.16-.08.17.08.25.17.33.25.99,1.32,1.24,2.98,1.82,4.38.41.91.66.74,1.07,1.65s0,1.07.41,1.9c.41.91.5.83.91,1.74.33.91.58.83.99,1.65.41.91.33.91.74,1.82.33.83.25.91.66,1.82.41.83.33.91.74,1.74.41.91.33.91.74,1.82.41.83.74.66,1.16,1.57.41.91.08.99.5,1.9.41.91.74.66,1.16,1.57.41.91.25.99.66,1.82.41.91.33.91.74,1.82.33.58,1.24.5,1.49-.08.33-.91.25-.99.58-1.9.41-.99.5-.91.83-1.9.33-.91.5-.83.83-1.82.33-.91.25-.99.58-1.9.33-.99.5-.91.83-1.82.41-.99.08-1.07.5-1.98.33-.99.66-.83.99-1.82q.41-.91.74-1.82c.41-.99,0-1.07.41-2.07.33-.91.66-.83.99-1.74.33-.91.17-.99.58-1.98.33-.91.08-.99.41-1.9.41-.99.5-.91.91-1.9.33-.91.58-.83.91-1.74.08-.33.25-.41.58-.41.99,0,.99-.33,2.07-.33s1.07.08,2.07.08c1.07,0,1.07.25,2.15.25.99,0,.99-.25,2.07-.25h4.21c.99,0,.99.25,2.07.25.5,0,.91.41.74.91ZM406.57,69.99c-.5-.08-.91-.17-1.41-.25-.25-.08-.41.25-.25.5.74.66,1.07.66,1.74.17.25-.08.17-.41-.08-.41ZM407.48,63.79c0-.25-.08-.5-.17-.5h-.33c-.17,0-.25.25-.25.5s.08.5.25.5h.33s.08-.08.17-.17v-.33ZM414.67,82.14c-.08-.17-.17-.17-.25-.25-.5-.17-.91.08-1.32.17-1.24.25-2.48-1.24-3.72-.66-.17.08-.33.33-.33.66,0,.25.08.5.25.58.08.17.25.25.41.41.08.08.17.17.25.25q.08,0,.17.08c.17.17.33.5.5.66.25.33.58.17.83,0,.25-.25.5-.58.74-.66.83-.41,1.65.41,2.4-.33.08-.08.17-.17.17-.33s0-.41-.08-.58ZM412.6,87.84c.08-.08.08-.41-.08-.5-.83-.41-1.49-.41-2.23.17-.08.08-.08.41,0,.5.74.5,1.41.83,2.31-.17ZM421.03,74.37c-.08-.08-.17-.08-.17-.17-.33-.08-.58.17-.91.33-1.9,1.16-3.97.66-5.95-.58-.41-.33-.91-.66-1.4-.74-.5,0-.99.25-1.49.91l.08-.08c-.17.33-.33.74-.33,1.24,0,.25,0,.58.08.83.17.17.33.17.5.08.99-.17,1.98-.58,2.97-.41.74.17,1.49.66,2.23.91,1.41.33,2.81-.25,4.05-1.32.08-.08.25-.17.33-.33.08-.25.08-.5,0-.66ZM411.2,69.91q.08,0,.17.08c.08,0,.17,0,.17-.17.08-.25.08-.5,0-.58q-.08-.08-.17-.08c-.08-.08-.17,0-.17.08,0,0-.08,0-.08.08-.08.17,0,.5.08.58ZM419.54,78.01s0-.08-.08-.08c-1.16-.08-2.31.25-3.55,0-.33-.08-.66-.17-.99-.25-.91-.17-1.82-.08-2.73.33h.25c-.33.08-.58.41-.91.74,0,.08-.08.17-.08.25,0,.25.08.33.25.33.58.08,1.16-.33,1.74-.08.33.17.58.5.83.66.25.17.58.17.83.17.33,0,.66,0,.91-.25.25-.17.41-.41.58-.58.83-.99,1.98,0,2.89-.91.08-.08.17-.25.08-.33ZM413.02,92.39c0-.25-.08-.33-.25-.5,0-.08-.08-.08-.17,0v.08c-.08.08-.08.17-.08.33.08.25.25.41.33.41,0,0,.17,0,.17-.33ZM418.72,85.61c-1.41-.25-2.56-.25-3.31.17-.17.08-.17.5,0,.5,1.16.41,2.31.33,3.39-.17.08-.08.08-.5-.08-.5ZM416.74,90.24c-.25-.17-.41-.25-.66-.33-.08,0-.08.08-.08.25v.17c0,.17,0,.25.08.25.17,0,.41,0,.58.08.08.08.08,0,.17-.08,0-.17,0-.25-.08-.33ZM419.3,82.31c-.5-.17-.91-.17-1.4-.08-.08.08-.17.33-.08.5.25.5.99.66,1.41.58.33.08.41-.83.08-.99ZM419.21,88.59l-.08-.08c-.08-.08-.17-.08-.25.08v.5q.08,0,.08.08c.08.08.17.08.25,0,.08-.17.08-.5,0-.58ZM423.84,72.88s0-.08-.08-.17-.17-.08-.17.08c-.08.08-.08.25,0,.41,0,.08.08.08.08.17q.08.08.17,0c.08-.08.08-.33,0-.5ZM427.4,67.51c-.17-.08-.33-.08-.41-.17-.08,0-.17-.17-.25-.17-.33-.17-.66-.17-.99-.08-.33.08-.66.41-.41.83.08.08.25.08.33.17h.91c.25-.08.41-.08.66-.08.08,0,.17,0,.17-.08.17-.08.08-.25,0-.41ZM426.07,75.45c0-.17-.08-.25-.17-.17q-.08,0-.17.08c-.08.08-.08.25,0,.33h.17c.08,0,.17-.08.17-.25ZM430.7,65.61c.08,0,.17-.17.25-.25.17-.17.25-.17.41,0,.41.58.74.08,1.16-.33.25-.25.17-1.07-.08-1.16s-.5-.08-.74,0c-.83.25-1.9.99-2.89.5h-.08c-.25,0-.58.25-.66.91-.08.33,0,.66.17.74.99.83,1.41.74,2.48-.41ZM428.64,62.06c.99.58,1.49.5,2.15-.17.17-.17.08-.66-.08-.74-.74-.08-1.49-.08-2.07.25-.17.08-.17.58,0,.66ZM433.76,68.84c-.08-.17,0-.41-.17-.58,0,0-.08-.08-.17-.08-.58-.08-1.16.08-1.74,0-.41-.08-.99-.41-1.32-.08-.5.41.83,1.07,1.07,1.24.41.17.83.17,1.24,0,.41-.08.74-.33,1.07-.5ZM431.12,71.23h-.5c-.17,0-.25.17-.25.41,0,.17.08.33.17.33.25.25.41.17.66,0,.25-.17.17-.74-.08-.74ZM436.73,74.29c-.5-.17-.66-.08-.91.25-.08.17.08.41.25.33.25-.08.5-.08.66-.17.25-.08.17-.41,0-.41ZM440.12,78.59l.08-.08.08-.08v-.08c.08-.25,0-.5-.08-.66-.08-.08-.17-.08-.33-.17-.66.17-1.41.33-2.07.5-.08,0-.17.17-.17.33,0,.08,0,.25.08.25.74.58,1.65.41,2.4,0ZM440.87,81.73c.66-.17,1.32.33,2.07,0,.17-.08.17-.41.08-.58-.08-.08-.17-.08-.17-.08-1.32-.74-2.64.33-3.97.33-.17,0-.33.41-.41.74-.08.17-.08.33,0,.41,0,.08.08.08.17.08.74-.33,1.49-.83,2.23-.91ZM443.76,84.7c-1.16-.33-2.23-.25-3.31.41-.17.08-.17.33,0,.33.5.17.99.33,1.49.25.66-.17,1.24-.41,1.82-.66.17,0,.17-.33,0-.33ZM440.78,89.74h-.08c-.08,0-.17.25-.08.33.08.08.17.08.17.08v-.08c.08-.08.08-.25,0-.33ZM441.36,75.61c.17.25.33.5.5.66.25.25.5.33.83.41.33.08.66,0,1.07,0,.58-.08,1.24-.08,1.82-.33.58-.17,1.24-.17,1.9-.08.33.08,1.49.5,1.57-.33.08-.17,0-.41-.08-.5-.08-.08-.25-.08-.33-.17-.33,0-.58-.08-.91-.08-.25,0-.5.08-.83.08-.25,0-.58-.08-.83-.08-.41,0-.83,0-1.16-.08-.41,0-.66-.17-.99-.25-.83-.25-1.57-.41-2.31-.25h-.25s-.08.08-.17.17c-.33.33,0,.58.17.83ZM450.29,78.67l-.08-.08c-.74-.5-1.57-.58-2.31-.5-.74,0-1.49.17-2.31.17-.99,0-2.07-.25-2.97.25-.17.08-.41.33-.41.58.41.33.83.08,1.16.17.08.08.17.08.17.17.08,0,.08.08.08.17.08.17.17.25.25.25.17.17.33.17.5.25h-.17.17c.17,0,.41.17.58.17.33,0,.58-.17.83-.33.58-.25,1.16-.41,1.74-.33.33.08.66.17.99.17.41.08.83,0,1.24-.17.25-.08.5-.25.58-.58v-.33ZM443.43,94.95c-.25.08-.5.08-.83.17-.08,0-.17.08-.17.25,0,.08.08.17.25.17.25,0,.58,0,.83-.08.17,0,.25-.08.25-.25s-.17-.25-.33-.25ZM446.16,88.5c-.74-.58-1.4,0-2.07-.17-.08.08-.08.33,0,.33.66.17,1.32.17,1.98.25.17,0,.17-.25.08-.41ZM449.87,82.55c0-.25-.08-.41-.33-.5-.41,0-.74-.25-1.16-.25-.08,0-.17,0-.25-.08-.08,0-.17,0-.33-.08-.33-.08-.58,0-.91.08-.33.17-.66.17-.99.17-.5,0-.5.91-.25,1.49.17.25.41.41.66.33,0-.08.08-.08.08-.17.08,0,.08-.08.08-.08.08-.08.17-.08.25-.08.58-.08,1.07-.41,1.65-.41.5-.08.91-.08,1.41-.25,0,0,.08-.08.08-.17ZM447.31,94.62c0-.17-.08-.33-.17-.33-.17,0-.25.33-.17.5.08,0,.08.08.08.08.08.17.25.08.25-.08.08-.08.08-.17,0-.17ZM448.55,85.86c0-.08-.08-.17-.08-.08-.17.08-.33.08-.5.08-.08,0-.17.08-.17.17,0,.17.08.33.17.33h.25c.08,0,.25-.08.33-.25.08,0,.08-.17,0-.25ZM452.77,71.48c-.25-.41-.58-.58-1.07-.33-.17.17-.17.33-.17.41v.08c.41.5.74.25,1.07,0h.08q.08,0,.08-.17Z"/><path class="cls-1" d="M532.74,73.63c0,.66.17,1.32.17,1.98s-.08,1.41-.17,2.07c0,.66-.17,1.32-.25,1.98-.08.66-.08,1.32-.25,1.98-.08.66,0,1.32-.17,1.98-.17.66-.58,1.24-.83,1.9-.17.58-.5,1.16-.74,1.82-.25.58-.33,1.32-.58,1.9-.33.66-.66,1.24-.99,1.82-.33.58-.58,1.16-.99,1.74-.33.58-.83,1.07-1.24,1.65-.41.5-.99.91-1.41,1.4-.41.5-.74,1.16-1.24,1.57-.5.5-.99.91-1.49,1.41-.5.41-1.24.66-1.74.99-.5.41-1.07.83-1.57,1.24-.58.33-1.08.91-1.65,1.24s-1.24.41-1.82.74c-.66.33-1.16.83-1.74,1.07-.66.25-1.32.25-1.98.5-.66.25-1.24.5-1.9.66-.58.25-1.24.41-1.9.58-.66.17-1.24.5-1.98.58-.58.08-1.32,0-1.98.08-.66.08-1.32.08-1.98.08-.66.08-1.32.17-1.98.17-.74,0-1.41.17-2.07.08-.66,0-1.32-.08-1.98-.17-.66,0-1.32-.41-1.98-.58-.66-.08-1.32,0-1.98-.17-.66-.08-1.24-.5-1.9-.74-.66-.17-1.4-.08-1.98-.33-.66-.17-1.24-.41-1.9-.66-.58-.33-1.16-.74-1.74-1.07s-1.24-.5-1.82-.83c-.58-.33-.99-.91-1.57-1.32-.58-.33-1.24-.5-1.82-.91-.5-.41-1.08-.83-1.57-1.24-.5-.5-.74-1.16-1.24-1.57-.5-.5-1.16-.83-1.57-1.32-.5-.5-.74-1.16-1.16-1.65-.41-.58-.99-.99-1.32-1.49-.41-.58-.58-1.24-.91-1.82-.33-.58-.74-1.16-.99-1.74-.33-.58-.74-1.16-.99-1.82-.25-.58-.17-1.32-.41-1.98-.17-.58-.66-1.16-.91-1.82-.17-.66-.17-1.32-.33-1.98-.08-.66,0-1.32-.08-1.98-.08-.66-.41-1.32-.5-1.98,0-.66.17-1.41.17-2.07s-.17-1.32-.17-1.98c.08-.66.33-1.32.41-1.98s.17-1.32.33-1.98c.08-.66.33-1.32.5-1.9.17-.66.33-1.32.58-1.98.17-.58.25-1.32.5-1.9.33-.66.5-1.24.83-1.82.33-.66.66-1.16.99-1.74.33-.58.83-1.07,1.24-1.65.33-.5.74-1.07,1.16-1.57.41-.58.66-1.24,1.08-1.74.5-.5.91-.99,1.4-1.49.41-.5,1.07-.74,1.65-1.16.5-.41.91-.91,1.49-1.32.5-.41.99-.91,1.57-1.32.5-.33,1.07-.74,1.65-1.07.58-.33,1.16-.66,1.74-.99.58-.25,1.24-.58,1.82-.83.66-.25,1.41-.25,1.98-.5.66-.17,1.24-.41,1.9-.58.66-.25,1.32-.41,1.9-.58.66-.17,1.32-.5,1.98-.58s1.32,0,1.98-.08c.66-.08,1.32-.17,1.98-.17h2.07c.66,0,1.32-.33,1.98-.25.66,0,1.32.25,1.98.33.66.08,1.32.33,1.98.5.66.08,1.32-.08,1.98.08.66.08,1.32.33,1.98.5.58.25,1.32.33,1.9.58.66.25,1.24.66,1.82.91.58.25,1.24.5,1.82.83.58.33,1.24.5,1.82.83s1.07.83,1.65,1.24c.58.33,1.07.83,1.57,1.24.5.33,1.16.66,1.65,1.07.5.5,1.07.83,1.57,1.32.41.5.83,1.07,1.24,1.57.5.5.91.99,1.32,1.49s.83,1.07,1.24,1.65c.33.5.83,1.07,1.16,1.65.33.58.33,1.32.58,1.9.33.58.83,1.07,1.07,1.74.25.58.33,1.32.5,1.9.25.66.5,1.24.66,1.9.17.66.5,1.32.66,1.98.08.58.17,1.32.25,1.98.08.66,0,1.32,0,1.98h0ZM480.43,74.12c-.17,0-.33,0-.5-.08-.58-.25-1.65-.17-2.4.41-.33.17-.58.17-.91-.08-.41-.41-.83-.33-1.16-.08-.17.17-.17.58,0,.66,1.32.66,2.56.08,3.88.25.41,0,.83-.08,1.16-.41.17-.17.08-.66-.08-.66ZM477.12,80.57l-.08-.08c0-.17-.08-.25-.17-.17-.25.17-.58.41-.83.58-.08.08-.17.25-.08.33,0,.17.08.25.17.17.33-.17.58-.33.83-.5.08-.08.17-.17.17-.33ZM476.96,70.74c.25.25.5.41.83.5.25,0,.41,0,.66-.08,0,0,.08-.08.17-.17.17-.08.17-.5,0-.66-.25-.17-.58-.25-.91-.25h-.66c-.17,0-.25.5-.08.66ZM480.1,78.59c-.5-.41-.74-.41-1.07,0-.17.17-.08.5,0,.5h.99c.17,0,.25-.41.08-.5ZM515.97,79.66c.08-.66.25-1.32.33-1.98.08-.66,0-1.32,0-2.07,0-.66-.17-1.32-.25-1.98-.08-.66.08-1.4-.08-1.98-.08-.74-.25-1.4-.41-1.98-.25-.66-.41-1.32-.66-1.98-.25-.58-.58-1.16-.91-1.74-.33-.66-.83-1.07-1.24-1.65-.41-.5-.91-.99-1.4-1.4-.5-.5-.99-.99-1.49-1.4-.58-.33-1.07-.91-1.65-1.16-.58-.33-1.24-.66-1.9-.83-.58-.25-1.32-.17-1.98-.33s-1.32-.17-1.98-.25c-.66-.08-1.32-.41-1.98-.41-.74,0-1.41.17-2.07.25-.66.08-1.32.25-1.98.41-.66.17-1.24.41-1.9.66-.66.17-1.24.41-1.82.74-.58.33-1.16.66-1.74,1.07-.5.33-1.24.58-1.65,1.07-.5.41-.99.99-1.41,1.49-.41.58-.74,1.16-1.07,1.74-.33.58-.5,1.24-.74,1.9-.25.58-.74,1.16-.91,1.82-.17.58-.33,1.24-.41,1.9-.17.66-.33,1.32-.41,2.07,0,.66.25,1.32.25,1.98,0,.74-.08,1.41-.08,2.07.08.66,0,1.4.08,1.98.17.74.66,1.32.83,1.9.17.66.33,1.32.58,1.9.33.66.66,1.24.99,1.82.33.58.58,1.24.99,1.74.41.58.91.99,1.41,1.49.41.5,1.07.83,1.57,1.16.58.41,1.07.91,1.65,1.24s1.16.66,1.82.91c.66.25,1.32.25,1.98.41.66.17,1.32.17,1.98.25.66.08,1.32.25,2.07.25.66,0,1.32-.08,1.98-.17.66-.08,1.32-.25,1.98-.33.66-.17,1.32-.41,1.9-.66.66-.25,1.4-.17,1.98-.5.58-.33,1.07-.91,1.57-1.32.58-.41,1.24-.66,1.74-1.16.5-.41.91-.99,1.32-1.57.41-.5.58-1.16.91-1.74.33-.58.74-1.16.99-1.74.25-.66.66-1.24.83-1.9.17-.66.25-1.32.41-1.98ZM490.59,57.02s.08,0,.08.08,0,.17.08.17c.33-.08.66-.17.99-.25.08,0,.08-.08.08-.25,0-.08-.08-.17-.08-.17-.33.08-.66.08-.99.17-.08,0-.17.08-.17.25ZM492.74,98.75c0-.17-.08-.25-.17-.25h-.74c-.08,0-.17.08-.17.25s.08.33.17.33h.74c.08,0,.17-.17.17-.33ZM498.78,51.4c.25,0,.58,0,.83.08.08,0,.17-.17.17-.33.08-.25,0-.33-.17-.41-.25,0-.5-.08-.83-.08-.08,0-.17.08-.17.33s.08.41.17.41ZM500.18,99.08c0-.17-.08-.33-.17-.33-.33.08-.66.17-1.07.25-.08,0-.17.08-.08.33,0,.17.08.25.17.25.33-.08.66-.08.99-.17.08,0,.17-.17.17-.33ZM502.33,53.79c.58-.17.99-.25,1.41-.33.17-.08.17-.25.17-.41v-.17c0-.17-.08-.25-.17-.25-.5-.08-.99-.25-1.49.5-.17.25-.08.66.08.66ZM506.54,95.61c-.33-.17-.66-.08-.99.33-.17.17-.17.58,0,.58.33.17.5.08,1.07-.25.17-.08.08-.58-.08-.66ZM517.12,92.55c0-.17-.08-.25-.17-.25h-.66s-.08.08-.08.25.08.25.08.25h.66c.08,0,.17-.08.17-.25ZM519.85,82.97c-.33-.17-.58-.08-.91.25-.08.17-.08.5.08.58.25.17.41.08.83-.25.17-.08.17-.58,0-.58ZM520.18,62.97c.08-.17.08-.41-.08-.33-.33.08-.66.25-1.07.33-.08.08-.08.33,0,.41.5.5.83.08,1.16-.41ZM520.35,75.2c.25,0,.41.08.66.08.08,0,.08-.08.08-.25s0-.33-.08-.33c-.25,0-.41-.08-.66-.08-.08,0-.08.08-.08.25v.08c0,.08,0,.25.08.25ZM521.67,89.66v-.08c0-.17,0-.25-.08-.25-.33.08-.58.08-.91.17-.08,0-.17.17-.08.33,0,.17,0,.25.08.25.33-.08.58-.08.91-.17.08,0,.17-.08.08-.25ZM524.15,76.6v-.17c0-.08-.08-.25-.17-.25-.33,0-.66-.17-1.07.5-.08.17,0,.5.08.5.41-.08.74-.17,1.07-.25.08,0,.08-.17.08-.33ZM524.39,63.22v-.08c0-.17-.08-.33-.25-.25-.33.17-.74.33-1.08.5-.17.08-.25.33-.17.58v.08c0,.25.17.33.25.33.33-.25.74-.41,1.16-.66.08-.08.17-.33.08-.5Z"/><path class="cls-1" d="M593.64,88.67c0,.99-.33.99-.33,1.98v1.98c0,.99.33.99.33,1.98v2.07c0,.99-.08.99-.08,1.98v1.98c0,1.24-.08,2.48-.08,3.8,0,.25-.08.58-.25.83-.25.41-.74.41-1.24.41-1.74-.25-2.97-1.65-4.21-2.73-.74-.58-.83-.5-1.65-1.16q-.74-.58-1.49-1.24c-.74-.66-.83-.58-1.57-1.16l-1.49-1.32c-.74-.58-.66-.74-1.4-1.32-.74-.66-.74-.74-1.49-1.32-.74-.66-.91-.5-1.65-1.07q-.74-.66-1.49-1.32t-1.49-1.24c-.74-.58-.91-.5-1.65-1.07-.74-.66-.58-.83-1.32-1.49-.83-.66-.99-.41-1.74-.99-.74-.66-.58-.83-1.32-1.49q-.74-.66-1.49-1.24c-.83-.66-.91-.5-1.65-1.16-.74-.58-.66-.74-1.41-1.4-.74-.58-.91-.41-1.65-.99-.83-.66-.74-.74-1.49-1.32-.74-.66-.66-.83-1.41-1.4q-.74-.66-1.49-1.32c-.74-.58-.91-.41-1.65-1.07-.66-.5-1.57-.08-1.57.83,0,.99-.25.99-.25,1.98s.08.99.08,2.07v1.98c0,.99.25.99.25,1.98,0,1.07-.25,1.07-.25,2.07s-.08.99-.08,1.98c0,1.07.08,1.07.08,2.07s.17.99.17,1.98c0,1.07.08,1.07.08,2.07s-.33.99-.33,1.98c0,1.07.25,1.07.25,2.07s-.25.99-.25,1.98c0,1.07.33,1.07.33,2.07s-.99,1.98-1.98,1.98-.99-.25-1.98-.25c-.91,0-.91.17-1.9.17s-.99-.25-1.98-.25c-.91,0-.91.25-1.9.25h-1.98c-.99,0-.99-.25-1.9-.25-.99,0-1.98-.66-1.98-1.65s.25-.99.25-1.98-.17-.99-.17-1.98.08-.99.08-1.98v-2.07c0-.99-.17-.99-.17-1.98s.33-.99.33-1.98-.33-.99-.33-1.98.08-.99.08-1.98.25-.99.25-1.98-.33-.99-.33-1.98v-3.97c0-.99.33-.99.33-1.98v-1.98c0-1.07-.33-1.07-.33-2.07s.25-.99.25-1.98-.25-.99-.25-1.98.25-.99.25-1.98-.17-.99-.17-1.98.25-.99.25-1.98-.33-.99-.33-1.98v-1.98c0-.99.08-.99.08-1.98s.17-.99.17-1.98-.17-.99-.17-2.07v-1.98c0-1.9-.08-3.8,0-5.7,0-.5.08-1.16.5-1.4.25-.08.41-.08.66-.08.41.08.91.08,1.24.33.33.17.5.41.74.66.83.66,1.98.99,2.81,1.74.83.58.74.66,1.49,1.32s.66.66,1.49,1.32c.74.66.66.66,1.41,1.32.83.58.91.5,1.65,1.07.74.66.66.83,1.41,1.41.74.66.91.5,1.65,1.07l1.49,1.32q.74.66,1.49,1.24c.74.66.83.58,1.57,1.24.74.66.66.66,1.49,1.32.74.66.74.58,1.49,1.24.74.58.66.74,1.41,1.4.83.58.91.41,1.74,1.07.74.58.58.74,1.32,1.4.74.58.83.58,1.57,1.24q.74.58,1.49,1.24c.74.58.99.41,1.74.99.74.66.58.83,1.32,1.49.83.58.83.5,1.65,1.16.74.58.66.74,1.4,1.32.74.66.91.5,1.65,1.07.66.58,1.49.17,1.49-.66,0-1.07.17-1.07.17-2.07s-.17-.99-.17-2.07c0-.99.08-.99.08-1.98,0-1.07.17-1.07.17-2.07s.08-.99.08-1.98c0-1.07-.17-1.07-.17-2.07s-.17-.99-.17-2.07v-1.98c0-1.07.25-1.07.25-2.07s-.25-.99-.25-2.07c0-.99.25-.99.25-1.98,0-1.07-.25-1.07-.25-2.07s.25-.99.25-2.07c0-.99.66-1.9,1.65-1.9s.99.25,1.98.25.99-.17,1.9-.17c.99,0,.99-.08,1.98-.08.99,0,.99.08,1.9.08.99,0,.99-.08,1.98-.08.99,0,.99.17,1.98.17s1.65.74,1.65,1.74.08.99.08,2.07c0,.99.17.99.17,1.98s-.33.99-.33,1.98.33.99.33,1.98-.08.99-.08,1.98.08.99.08,1.98v1.98c0,.99-.25.99-.25,1.98s-.08.99-.08,2.07c0,.99.33.99.33,1.98s-.08.99-.08,1.98.08.99.08,1.98-.25.99-.25,1.98v1.98c0,.99.17.99.17,1.98s-.08.99-.08,1.98-.08.99-.08,2.07v1.98c0,.99.25.99.25,1.98v3.97ZM545.55,68.42c.08-.08.08-.25,0-.25-.41.08-.74.08-1.07.08-.08.08-.08.25-.08.25.66.25.83.25,1.16-.08ZM545.79,88.01c0-.08-.08-.17-.08-.25h-.08c-.08,0-.17.08-.17.08-.08,0-.08.17-.08.25.08.17.17.25.25.33,0,0,.08-.08.17-.17.08-.08.08-.17,0-.25ZM545.79,56.11c.08-.08.25-.17.41-.33.08-.17.08-.5-.08-.58,0-.08-.08-.08-.08-.08-.17.08-.33.33-.41.5-.08.08.17.5.17.5ZM547.61,79.41c.17-.08.17-.5,0-.58-.58-.33-.99-.25-1.4.17-.17.08-.08.5.08.5.33,0,.83.08,1.32-.08ZM546.29,64.7c.17.08.25.08.41,0l.08-.08c0-.08,0-.17-.08-.25h-.25c-.08,0-.17.08-.17.25v.08ZM548.44,84.62c-.66-.41-.91-.41-1.41,0-.17.17-.08.58.08.58h1.24c.25,0,.25-.41.08-.58ZM552.82,71.48c.17-.08.17-.41,0-.41-1.24-.17-2.48-.33-3.8-.33-.33,0-.74.17-.91.66-.08.33.08.74.25.66,1.57-.17,3.06.41,4.46-.58ZM548.27,67.68c.08.25.25.25.25.41.08,0,.08.08.08.08,0,.08.08.08.08.17.25.08.58-.17.83-.25.25-.08.58-.17.83-.08.25,0,.5.08.74.08.17,0,.41-.08.58-.33.17-.17.17-.33.33-.5.08-.08.25-.08.33-.17h.58c.08,0,.25,0,.33-.08.08-.17.08-.41,0-.66-.08-.17-.17-.25-.33-.25-.17-.08-.25,0-.41,0-.74.17-1.49.08-2.23.08h-.08c0,.08,0,.17-.08.17-.08.33-.33.41-.5.41-.41.08-.91.08-1.24.5-.08.08-.08.33-.08.41ZM549.84,61.15c.58.17,1.24.33,1.9-.08.08-.08.17-.33,0-.41-.74-.74-1.32-.41-1.9.08-.17.08-.17.41,0,.41ZM559.27,74.21c.17,0,0-.74-.17-.91-.58-.33-1.24-.25-1.74.17h-.08c-.08.08-.17.17-.33.25-.33.17-.66.33-1.07.33-.58,0-1.24-.41-1.82-.33-1.32.17-2.56.41-3.88.83-.25.08.08.5.5.58.74.17,1.49.41,2.15.58.41.17.91.08,1.32-.25.25-.17.5-.33.83-.41,1.41-.33,2.81-.5,4.3-.83ZM551.58,78.5c0-.08-.08-.08-.08-.08-.17,0-.25.41-.08.58l.08.08q.08,0,.17-.08c.08-.17.08-.41-.08-.5ZM559.51,68.67c-.08-.08-.25-.17-.33-.25h.08c.08-.08.08-.17,0-.17h-.5c-1.57-.66-3.14.25-4.88.33-.25,0-.33.66-.08.83.58.33,1.08.33,1.65.17.5-.25,1.07-.17,1.65-.17.5.08.99.41,1.49.5.41.08.83.08,1.07-.66,0-.25,0-.5-.17-.58ZM554.14,64.37c.08.25.25.41.33.5.25.08.41.08.58.25.25.25.33.74.58.91h.41c.17-.08.25-.25.25-.5.08-.25.17-.5.25-.74.08-.25.17-.5.33-.58.17-.17.74-.33.58-.91-.08-.25-.33-.25-.5-.17-.41.17-.91.66-1.4.74-.33.08-.66,0-.99,0h-.33c-.17.08-.25.25-.08.5ZM555.96,71.73c.5-.08.91-.25,1.32-.41.08,0,.08-.25,0-.25-.58-.17-.83-.08-1.41.41-.08.08,0,.33.08.25ZM559.18,76.44c-.17,0-.25.41-.08.58.74.66.66-.74.08-.58ZM562.07,72.47c0-.33-.08-.74-.25-.91-.5-.33-.91-.08-1.41.25-.17.17-.17.58,0,.66.5.17.91.33,1.24.41.08,0,.41-.33.41-.41ZM564.14,77.93v-.08c0-.25-.08-.33-.25-.33-.5.08-1.07.17-1.57.25-.17,0-.25.17-.25.41s.08.33.25.33c.58,0,1.07-.08,1.65-.17.08,0,.25-.17.17-.41ZM568.03,75.61c0-.17-.17-.33-.25-.25-.08.08-.25.17-.33.25-.25.17-.17.66.08.58.17,0,.33-.08.41-.17.08-.08.17-.25.08-.41ZM575.96,77.6h-.66c-.17,0-.25.17-.25.25s0,.08.08.08c0,.08,0,.17.17.17.25,0,.5.08.74-.08.17-.08.17-.41-.08-.41ZM583.4,80.82c.17-.08.08-.41-.08-.41h-3.39c-.33,0-.74.33-.83.74-.17.5-.5.99-.91,1.16-.25,0-.41.08-.66.17-.17.08-.17.41.08.5.74.08,1.82.08,1.82.08.33,0,.66-.33.66-.83,0-.41.41-.5.83-.66.66-.17,1.74-.5,2.48-.74ZM578.69,78.17c1.65-.33,3.39-.08,5.04.25.25,0,.41,0,.58-.08.25,0,.25-.33.08-.41-.5-.17-.91-.25-1.24-.5-1.74-1.32-3.22-.99-4.63.33-.17.17-.08.5.17.41ZM579.76,74.21c1.65.5,4.13.41,5.45.25.25,0,.33-.5.08-.58-.41-.25-.91-.41-1.32-.33-1.08.33-2.15.25-3.22.33-.33,0-.66.08-.91.17-.17,0-.17.17-.08.17ZM581.33,86.77c-.5.08-.91.08-1.32.17-.17,0-.17.33,0,.41.74.41.91.33,1.4-.17.08-.17,0-.41-.08-.41ZM581.25,72.14c.17-.08.33-.08.5-.17.25-.08.25-.41.08-.5-.41-.17-.91-.33-.99.08-.08.41.08.66.41.58ZM582.49,66.69c.08,0,.25.08.5.08q.08,0,.17-.08c0-.08.08-.17.08-.25s0-.08-.08-.17c-.25-.08-.5.08-.66.17-.17,0-.17.25,0,.25ZM584.64,84.87v-.33c.08-.17.25-.25.41-.25.25-.08.58-.25.83-.5.08-.08.17-.17.17-.33s-.08-.33-.25-.33c-.17-.08-.33,0-.41.08-.17,0-.41.08-.58.17-.33.17-.66.33-.99.5-.25.17-.5.25-.74.5-.08.08-.08.25-.08.41v.17c.25.08.41.08.58.17s.41.25.58.25c.25,0,.5-.25.5-.5ZM583.31,71.15c.33.17.66.25.99,0,.25-.17.66-.5.91-.74.17-.17.08-.5-.08-.41-.5.08-1.16.25-1.74.33-.25.08-.33.66-.08.83ZM584.55,59.17c.17.08.25.25.33.25.08.08.17-.17.25-.25-.08-.08-.17-.17-.25-.17s-.17.08-.33.17ZM585.38,91.23c-.08-.08-.17-.17-.25-.17-.17.08-.33.17-.5.25v.17c0,.08.08.17.17.17.17-.08.25-.08.41-.08.08-.08.17-.17.17-.33ZM586.37,95.53c0-.17-.17-.25-.33-.25-.25.08-.25.66.08.66.17,0,.25-.17.25-.41Z"/><path class="cls-1" d="M654.55,75.45c0,.66.08,1.32,0,1.98,0,.74-.17,1.32-.25,2.07-.08.66,0,1.32-.08,1.98-.08.66-.08,1.4-.25,1.98-.17.66-.66,1.24-.83,1.9s-.33,1.32-.58,1.9c-.25.66-.33,1.4-.58,1.98-.33.66-.74,1.16-1.07,1.74-.25.66-.66,1.16-.99,1.74-.41.58-.66,1.24-1.07,1.82-.41.5-.99.91-1.41,1.4s-.91.99-1.41,1.4c-.5.5-.99.99-1.49,1.4-.5.41-1.07.83-1.57,1.24-.58.41-1.07.91-1.65,1.24-.5.41-1.24.5-1.82.83-.58.33-1.16.66-1.82.91-.58.25-1.16.66-1.82.91s-1.32.33-1.98.5c-.58.17-1.24.41-1.9.58-.66.17-1.32.25-1.98.33s-1.32.17-2.07.25c-.66,0-1.32.25-1.98.25s-1.32.08-1.98.08c-.99,0-.99-.17-1.98-.17s-.99.08-1.98.08c-.91,0-.91.17-1.9.17s-.99-.17-1.98-.17-.99.08-1.9.08c-.99,0-.99-.08-1.98-.08s-.99.08-1.98.08c-.91,0-.91-.17-1.9-.17h-1.98c-.99,0-.99-.08-1.9-.08-.99,0-.99.08-1.98.08-.58,0-1.16-.08-1.49-.41-.41-.41-.41-.99-.41-1.49,0-.99-.08-.99-.08-1.98s.08-.99.08-1.98-.25-.99-.25-1.9c0-.99.17-.99.17-1.98s.08-.99.08-1.98c0-.91-.08-.91-.08-1.9s.08-.99.08-1.98-.25-.99-.25-1.98c0-.91.17-.91.17-1.9v-3.88c0-.99-.25-.99-.25-1.98s.33-.99.33-1.98v-1.9c0-.99-.25-.99-.25-1.98v-1.98c0-.91.08-.91.08-1.9s.17-.99.17-1.98v-1.98c0-.91-.25-.91-.25-1.9s.08-.99.08-1.98v-1.9c0-.99-.08-.99-.08-1.98s.17-.99.17-1.98v-1.9c0-.99-.08-.99-.08-1.98v-1.98c0-.91.08-.91.08-1.9q.08-.99.08-1.98c0-.58.17-.99.5-1.4.41-.33.83-.58,1.41-.58.99,0,.99-.17,1.98-.17.91,0,.91.25,1.9.25s.99-.25,1.98-.25h1.9c.99,0,.99.17,1.98.17s.99-.25,1.98-.25q.91,0,1.9,0c.99,0,.99.17,1.98.17s.99-.17,1.9-.17c.99,0,.99.25,1.98.25h3.97c.66.08,1.32.08,1.98.17.74.08,1.32.33,1.98.41.74.08,1.41.17,1.98.33.74.17,1.32.33,1.98.5.66.17,1.32.33,1.98.58.58.25,1.24.41,1.9.66.58.25,1.16.58,1.82.91.58.33,1.07.74,1.65,1.07.58.41,1.24.58,1.82.99.5.41.99.91,1.49,1.41.5.41,1.16.66,1.65,1.16.5.5.74,1.16,1.16,1.65.5.5,1.07.91,1.49,1.4.41.58.58,1.24.99,1.82.33.58.66,1.16.99,1.74.33.58.74,1.16.99,1.74.33.58.41,1.32.66,1.9.25.66.41,1.32.58,1.98.25.58.41,1.24.58,1.9.17.66.41,1.32.5,1.98.17.66.17,1.32.25,1.98.08.66.17,1.32.25,1.98,0,.66-.08,1.4-.08,2.07ZM608.1,94.78c-.5-.08-.99-.17-1.57-.33-.08-.08-.17.08-.08.17.91.91.99.99,1.74.41.08-.08,0-.25-.08-.25ZM607.52,55.03c.41.25,1.32.17,1.41-.41.08-.66-.83-.33-1.16-.66-.08-.08-.08-.17-.17-.17-.08-.17-.25-.17-.41-.17-1.24-.17-.08,1.16.33,1.4ZM613.56,90.24s.08,0,.17-.08c.08,0,.17,0,.17-.08s0-.17-.08-.17c-.25-.41-.66-.5-1.07-.58-.5-.08-.99-.25-1.49-.08-.25,0-.5.17-.74.25-.58.25-1.16.41-1.82.41-.5,0-1.16-.08-1.57.25-.08,0-.08.08-.08.08-.17.17-.17.33-.08.5v.08c.08,0,.08.08.08.08.5.08.91-.08,1.32-.17.5,0,1.07.08,1.49-.08.25-.08.41-.17.58-.25.41-.25.83-.33,1.32-.33.33,0,.74.08,1.07.17h.74ZM608.18,77.18c.25-.58-.66-.91-.91-.41-.5.83.74,1.07.91.41ZM607.77,82.06c-.17.08-.08.25,0,.25h2.23c.08,0,.08-.08.08-.17s.08-.17.08-.25-.08-.17-.17-.17c-.74-.17-1.49-.17-2.23.33ZM609.75,62.14c.66.33,1.32.58,2.07.74.17.08.33-.08.5-.25.17-.08.17-.33.08-.41-.17-.25-.41-.5-.58-.5-.66-.17-1.32-.08-1.98-.08-.08,0-.17.08-.25.17,0,.17,0,.33.17.33ZM611.82,94.37s-.08-.08-.17-.08c-.25-.08-.41-.17-.66-.25-.5-.25-.83.17-.25.5v.08c.33.17.66.17.91,0,.08-.08.17-.08.17-.25ZM612.23,68.01h-1.24c-.33,0-.41.33-.17.58.5.41.83.41,1.57,0,.25-.17.17-.58-.17-.58ZM612.73,54.29h.17c.08-.08.25-.08.33-.17.17-.08.33-.17.41-.33.08-.33-.41-.74-.74-.74h-.17c-.17.08-.33.25-.33.5s0,.66.33.74ZM615.79,96.27c-.66-.08-1.32,0-1.82.33-1.07.5-.17.91.58.91.41,0,1.74.08,2.07-.33,0,0,0-.08.08-.08.17-.41-.41-.74-.91-.83ZM615.54,51.73c0,.17,0,.25.08.41,0,.08.08.08.17.08.5-.17.99-.41,1.49-.58.17,0,.17-.25,0-.33-.66-.25-1.24-.33-1.74.33,0,0-.08.08,0,.08ZM638.1,75.45c0-.66-.08-1.4-.08-1.98-.08-.74-.25-1.4-.33-1.98-.17-.66-.08-1.4-.33-1.98-.17-.66-.41-1.32-.66-1.9-.33-.66-.58-1.24-.91-1.82-.41-.58-.83-1.07-1.24-1.57-.41-.58-.91-.99-1.4-1.4-.5-.5-.99-.91-1.57-1.32-.5-.33-1.07-.74-1.65-1.07-.58-.33-1.24-.41-1.9-.58-.58-.25-1.24-.58-1.9-.66-.66-.17-1.32,0-1.98-.08-.66-.08-1.32-.41-1.98-.41-.83,0-.83.25-1.74.25-.83,0-.83-.25-1.65-.25-.58,0-1.24.25-1.57.66-.33.33-.5.99-.5,1.49,0,.99-.17.99-.17,1.98v3.88c0,.99.17.99.17,1.98,0,.91-.08.91-.08,1.9s.08.99.08,1.98c0,.91-.08.91-.08,1.9s.08.99.08,1.98c0,.91-.08.91-.08,1.9s.17.99.17,1.98c0,.91.08.91.08,1.9s-.33.99-.33,1.98c0,.91.08.91.08,1.9s.17.99.17,1.98c0,.91-.08.91-.08,1.9,0,.58.17,1.07.58,1.49.33.33.91.41,1.49.41.83,0,.83.17,1.65.17q.91.08,1.74.08c.66,0,1.32-.08,1.98-.08.66-.08,1.32-.25,1.98-.33.66-.17,1.32-.5,1.9-.66.66-.25,1.32-.25,1.9-.58.66-.33,1.07-.83,1.65-1.24.5-.41,1.07-.74,1.57-1.16.5-.5.99-.91,1.4-1.4s.66-1.16.99-1.74c.33-.58.66-1.16.91-1.82.25-.58.58-1.16.74-1.82.25-.58.25-1.24.33-1.9.17-.66.41-1.32.5-1.98.08-.66.08-1.32.08-1.98ZM619.67,99.33h-1.49c-.08,0-.17.08-.08.17.58.66.99.41,1.57,0,.08,0,.08-.17,0-.17ZM618.51,94.78c.58.17.83-.08.91-.5.08-.17-.08-.33-.17-.25-.25.08-.5.25-.83.33-.08.08-.08.33.08.41ZM621.74,53.46c.91.25,1.24-.08,1.41-.66.08-.25-.08-.41-.25-.33-.33.17-.74.33-1.16.5-.25.17-.17.5,0,.5ZM643.47,73.55c.08-.08.08-.17.08-.17,0-.5-1.57-.66-1.74-.08-.25.58.74.58,1.07.58.25-.08.5-.17.58-.33ZM642.32,68.5c.99.17,1.74.17,2.48-.25,0,0,.08-.08,0-.17v-.17c0-.08-.08-.08-.17-.08-.66.17-1.41.33-2.31.5-.08,0-.08.17,0,.17ZM645.04,83.96c-1.41.17-1.65.25-2.07.66-.08.08,0,.25.08.25.99,0,1.24-.08,2.07-.66.08-.08,0-.25-.08-.25ZM644.88,87.76h-1.08c-.17,0-.17.25-.08.25.41.17.74.17,1.24,0,.08,0,.08-.25-.08-.25ZM647.44,78.59c-.41-.08-1.16,0-1.49.33l-.08.08c-.41.66.5.83.99.66.33,0,.66-.17.91-.33.66-.41.25-.66-.33-.74ZM646.28,62.47c0,.17.08.25.08.33,0,0,.08.08.17,0,.41-.08.83-.25,1.24-.33.08-.08.08-.17,0-.25-.58-.25-1.07-.25-1.49.17v.08ZM646.45,73.38v.17-.17c.08.17.17.25.33.25.25.08.41-.08.58-.17.08-.08.17-.17.17-.25,0-.25-.25-.33-.41-.25-.25,0-.41.17-.58.17,0,.08,0,.17-.08.25l.08-.17c-.08,0-.08.08-.08.17Z"/><path class="cls-1" d="M704.29,100.07v1.9c0,.91.08.91.08,1.9,0,.58-.25,1.07-.58,1.4-.41.41-.83.74-1.4.74-.99,0-.99-.25-1.98-.25s-.99.25-1.98.25h-1.98c-.99,0-.99-.17-1.98-.17s-.99.25-1.98.25h-1.98c-.99,0-.99-.17-2.07-.17-.99,0-.99.17-1.98.17s-.99-.25-1.98-.25h-3.97c-.99,0-.99.08-1.98.08s-.99-.17-1.98-.17h-1.98c-.99,0-.99.08-1.98.08h-1.98c-.99,0-.99.17-1.98.17s-.99-.08-1.98-.08-.99-.08-1.98-.08-.99.08-1.98.08c-.58,0-1.07-.33-1.41-.66-.41-.41-.83-.83-.83-1.4,0-.99.33-.99.33-1.98,0-.91-.25-.91-.25-1.9s.25-.99.25-1.98v-1.9c0-.99-.17-.99-.17-1.98s.17-.99.17-1.98v-3.88c0-.99-.17-.99-.17-1.98,0-.91.08-.91.08-1.9s-.08-.99-.08-1.98.08-.99.08-1.98c0-.91-.08-.91-.08-1.9s.17-.99.17-1.98-.25-.99-.25-1.9c0-.99-.08-.99-.08-1.98s.33-.99.33-1.98-.08-.99-.08-1.9c0-.99-.17-.99-.17-1.98s.08-.99.08-1.98c0-.91.08-.91.08-1.9s-.25-.99-.25-1.98.25-.99.25-1.98v-5.79c0-.99-.17-.99-.17-1.98s.25-.99.25-1.98-.08-.99-.08-1.9c0-.58.08-1.16.5-1.49.33-.41.91-.58,1.49-.58.99,0,.99-.08,1.98-.08s.99.08,2.07.08c.99,0,.99-.08,1.98-.08h2.07c.99,0,.99.08,1.98.08,1.07,0,1.07-.17,2.07-.17s.99.08,1.98.08h2.07c.99,0,.99-.08,1.98-.08h2.07c.99,0,.99.25,2.07.25.99,0,.99-.08,1.98-.08s.99.08,2.07.08h1.98c.99,0,.99-.17,2.07-.17h1.98c.99,0,.99.17,2.07.17.99,0,.99-.08,1.98-.08,1.07,0,1.07-.17,2.07-.17.58,0,.99.41,1.41.83.33.33.66.83.66,1.41,0,.91.08.91.08,1.9,0,.91.08.91.08,1.9s-.41.99-.41,1.9c0,.99.33.99.33,1.9,0,.99-.33.99-.33,1.98,0,.5-.08.91-.5,1.32-.33.33-.74.83-1.32.83-.99,0-.99-.08-2.07-.08-.99,0-.99.08-1.98.08s-.99-.25-2.07-.25c-.99,0-.99.25-1.98.25h-2.07c-.99,0-.99-.08-1.98-.08s-.99-.08-2.07-.08c-.99,0-.99-.17-1.98-.17s-.99.08-2.07.08c-.99,0-.99.25-1.98.25s-.99-.33-2.07-.33c-.5,0-1.16.33-1.49.66-.41.41-.58.99-.58,1.57,0,.99-.08.99-.08,1.98s.08.99.08,1.98.08.99.08,1.98c0,.5.33.99.66,1.32.33.33.83.83,1.32.83.99,0,.99-.25,1.98-.25s.99.25,1.98.25.99-.25,1.98-.25c1.08,0,1.08.17,2.07.17s.99.08,1.98.08.99-.08,1.98-.08.99-.17,1.98-.17.99.17,1.98.17h1.98c.58,0,1.07.17,1.41.58.41.33.58.83.58,1.4,0,1.07-.08,1.07-.08,2.23,0,1.07.25,1.07.25,2.23,0,1.07-.08,1.07-.08,2.15,0,1.16.08,1.16.08,2.23,0,.58-.41.99-.83,1.4-.33.33-.74.74-1.32.74h-1.98c-.99,0-.99-.08-1.98-.08h-1.98c-.99,0-.99.08-1.98.08-.99,0-.99.08-1.98.08s-.99-.08-1.98-.08c-1.07,0-1.07-.08-2.07-.08s-.99.08-1.98.08-.99-.08-1.98-.08c-.5,0-.99.25-1.4.66-.33.33-.58.83-.58,1.41,0,.99.08.99.08,2.07s.08,1.07.08,2.15-.25,1.07-.25,2.15c0,.58.25,1.07.58,1.49.41.33.99.58,1.49.58.99,0,.99-.17,1.98-.17s.99.17,1.98.17.99.08,1.9.08h3.97c.99,0,.99-.25,1.98-.25.91,0,.91.25,1.9.25s.99-.25,1.98-.25.99.17,1.98.17.99-.08,1.9-.08c.99,0,.99-.17,1.98-.17h1.98c.58,0,1.16.33,1.49.74.41.33.5.91.5,1.49v1.9c0,.99-.08.99-.08,1.9v1.98ZM668.26,56.77c1.57.74,1.9.74,2.31-.17.08-.25,0-.41-.17-.41-.74,0-1.41.08-2.07.08-.25,0-.33.41-.08.5ZM668.67,87.35c-.08-.08-.17-.17-.25-.17l-.08.08c-.08.08-.17.25,0,.33v.08c.08.08.25.08.33.08v-.08c.08-.08.08-.25,0-.33ZM668.92,53.88c.08,0,.08.08.17.08h.17c.25-.17.33-.5.08-.74-.08,0-.08-.08-.17-.08-.33,0-.5.5-.25.74ZM669.09,68.59s.08-.08.17,0c.74.41,1.49,0,2.31.25.17,0,.33-.17.41-.41,0-.25-.08-.58-.17-.58-.74.08-1.49.33-2.23-.41-.33-.33-.58.17-.66.99,0,.17.08.25.17.17ZM669.42,83.05c.5-.08,1.07,0,1.57-.25.33-.08.74-.17,1.07-.5.17-.17.08-.41-.17-.41-.17,0-.41,0-.58.08-.74.08-1.49.25-2.15.41-.25.08-.17.74.25.66ZM669.67,71.4c-.08-.08-.17-.17-.33-.25,0,0-.17.25-.17.41,0,.08.08.08.25.25h.17c0-.08.08-.17.17-.25,0-.08,0-.17-.08-.17ZM671.32,90.82v-.17h-.08c-.08-.08-.17-.08-.17-.17-.08,0-.17-.17-.17-.25v-.08q-.08-.08-.17-.08c-.33-.08-.74-.08-1.16,0q-.08.08-.17.17s0,.08.08.17c.08.5.08.58.58.58.17,0,1.24,0,1.24-.17ZM671.15,76.6c-.25.08-.5.08-.74.08-.17,0-.25.08-.25.25,0,0,.66.17.99.17.08.08.17-.08.25-.17,0-.17-.17-.33-.25-.33ZM670.33,66.6v.08s.08,0,.08.08c.41.25,1.07.17,1.49-.17.08-.08,0-.41-.17-.41-.33,0-.66,0-.99.08-.17,0-.74,0-.41.33ZM672.06,96.11c-.41-.41-1.74-.17-1.07.41,0,.08.08.08.17.08.08.08.17,0,.25,0,.17,0,.41,0,.58.17,0,0,.08.08.17,0v-.08c.17-.25.08-.41-.08-.58ZM672.39,79.25c.25-.08.5-.08.74-.08.08,0,.17-.17.08-.25-.41-.33-.5-.33-.91,0-.08.17,0,.33.08.33ZM673.38,92.47c-.33.17-.5.33-.91.41-.08,0-.08.17,0,.17.41.08,1.07.17,1.49-.08,0-.08.08-.17.08-.17.17-.33-.33-.58-.66-.33ZM674.79,71.64c-.83-.41-1.57-.5-2.15.25v.17c0,.17.08.33.08.41.08.17.17.17.25.17.58-.25,1.16-.5,1.82-.66.08-.08.08-.33,0-.33ZM672.89,60.65h1.08c.17,0,.25-.17.25-.41,0-.17-.17-.25-.33-.17-.25.08-.66.25-.99.33-.17.08-.17.33,0,.25ZM674.54,52.56c-.17.08-.33.17-.5.25-.08.08-.17.17-.17.33,0,.08.08.17.17.17.33.08.58,0,.74-.33.17-.17,0-.5-.25-.41ZM676.94,75.69c.25,0,.41-.08.5-.25.08-.08,0-.17-.08-.17-.83.08-1.57.08-2.4.17-.08,0-.08.08,0,.17.5.5.66.5,1.32.25.17-.17.41-.17.66-.17ZM674.95,56.27c.08.08.17.08.25.17.08.08.25,0,.25-.08.08-.17,0-.33-.08-.33-.08-.08-.17-.08-.33-.17,0,0-.17.33-.08.41ZM675.86,95.03c-.17-.17-.33-.33-.58-.41,0-.08-.08,0-.17,0-.08.08,0,.25.08.25.17.17.33.33.5.41.08.08.17,0,.17,0,0,0,0-.08.08-.08,0,0,0-.17-.08-.17ZM678.34,95.94c-.91.17-1.08.25-1.32.5-.08.08,0,.17.08.17.66.08.83,0,1.32-.5.08,0,.08-.17-.08-.17ZM679.25,74.04c.17.08.25.25.41.33.08.08.17,0,.17-.17,0-.41-.08-.5-.5-.41-.08,0-.17.17-.08.25ZM679.42,76.52c-.08.08-.08.17,0,.17.33.17.66.08.91-.17.08-.08.08-.25,0-.25-.41-.08-.66-.08-.91.25ZM682.39,75.53c.41.17.58.17.83-.08v-.08q0-.08-.08-.17s0-.08-.08-.08c-.17.08-.33.17-.66.25-.08,0-.08.08,0,.17Z"/><path class="cls-1" d="M758.49,105.78c-.99,0-.99.17-2.07.17h-6.36c-1.07,0-1.07-.17-2.15-.17s-1.07.17-2.07.17c-1.07,0-1.07-.08-2.15-.08-.66,0-1.32-.33-1.65-.91-.5-.83-.58-.74-1.08-1.65-.5-.83-.17-.99-.66-1.82q-.5-.91-.99-1.74c-.5-.83-.66-.74-1.16-1.57-.5-.91-.41-.91-.91-1.82q-.5-.83-.99-1.65c-.5-.91-.5-.83-.99-1.74q-.5-.83-.99-1.74c-.41-.83-.33-.91-.74-1.74-.5-.91-.58-.83-1.07-1.74-.33-.58-.99-.83-1.65-.83-1.32,0-1.32.08-2.56.08-1.07,0-1.74.66-1.74,1.74,0,.91-.08.91-.08,1.9v3.8c0,.99-.17.99-.17,1.9v1.98c0,.91.17.91.17,1.9,0,.91.08.91.08,1.9s-.25.99-.25,1.9c0,.99-.74,1.74-1.74,1.74-1.07,0-1.07-.08-2.07-.08-1.07,0-1.07.33-2.15.33h-2.07c-1.08,0-1.08-.17-2.07-.17-1.07,0-1.07.08-2.15.08-.99,0-.99.08-2.07.08-.99,0-1.9-.99-1.9-1.98s.17-.99.17-1.98-.25-.99-.25-1.9c0-.99.25-.99.25-1.98s-.25-.99-.25-1.98.17-.99.17-1.98v-1.98c0-.99.08-.99.08-1.9v-1.98c0-.99-.17-.99-.17-1.98v-1.98c0-.99-.08-.99-.08-1.98v-1.9c0-.99.25-.99.25-1.98v-1.98c0-.99-.17-.99-.17-1.98s-.08-.99-.08-1.98.25-.99.25-1.9c0-.99-.17-.99-.17-1.98s.08-.99.08-1.98.17-.99.17-1.98-.08-.99-.08-1.98v-1.9c0-.99-.25-.99-.25-1.98s.17-.99.17-1.98-.17-.99-.17-1.98.25-.99.25-1.98v-1.9c0-.99-.25-.99-.25-1.98s.17-.99.17-1.98.83-1.74,1.82-1.74.99-.33,2.07-.33c.99,0,.99.17,2.07.17.99,0,.99-.08,2.07-.08h2.07c.99,0,.99.17,2.07.17.99,0,.99.17,2.07.17.99,0,.99-.33,2.07-.33.99,0,.99.08,2.07.08.99,0,.99.17,2.07.17.99,0,.99.08,2.07.08.99,0,.99-.33,2.07-.33.66,0,1.32.33,1.98.33.66.08,1.32.08,1.98.17.74.08,1.4-.08,2.07,0,.66.17,1.24.58,1.9.74.66.17,1.32.25,1.98.41.66.25,1.24.5,1.9.74.58.33,1.16.58,1.74.91.66.33,1.24.66,1.74,1.07.58.41,1.07.83,1.57,1.24.58.41,1.08.83,1.57,1.32.5.5.83.99,1.24,1.57.41.5.83,1.07,1.16,1.65.33.58.83,1.07,1.08,1.65.33.66.66,1.24.91,1.9.17.58.33,1.24.5,1.9s.41,1.32.5,1.98c.17.66.08,1.32.17,2.07.08.66-.08,1.32-.08,1.98s.25,1.4.17,2.07c0,.66-.41,1.32-.58,1.98-.08.66,0,1.32-.17,1.98s-.41,1.32-.66,1.9c-.25.66-.66,1.24-.99,1.82-.25.58-.58,1.24-.91,1.82-.41.58-1.07.91-1.49,1.41-.41.5-.83,1.16-1.32,1.57-.5.41-1.08.74-1.65,1.16s-1.16.74-1.74,1.07c-.91.5-1.24,1.74-.66,2.64q.5.83.99,1.65c.5.83.58.74,1.07,1.57.5.83.33.99.83,1.82.5.83.66.66,1.16,1.49.5.83.5.91.99,1.74.5.83.25.91.74,1.74.5.83.66.83,1.16,1.65q.41.83.91,1.65c.5.83.41.91.91,1.74.5.83.66.74,1.16,1.57q.5.83.99,1.65c.33.66-.25,1.4-.99,1.4ZM716.84,58.59c.33.17.66.25.91.25.5,0,.5-.66.08-.74-.33-.08-.74-.08-.99.08-.17.08-.17.33,0,.41ZM718.99,82.64c.25-.17.33-.5.58-.66h.33c.25-.08.83.08.99-.41,0-.08,0-.25-.08-.33-.17-.41-.41-.58-.74-.66-.25,0-.5.08-.83,0-.25,0-.58-.17-.91-.33-.17-.17-.41-.41-.66-.41s-.5.33-.41.74c0,.33.25.5.25.83,0,.08-.08.17-.08.33-.17.25-.17.58-.08.83.08.25.33.33.5.33.41.08.83.25,1.16-.25ZM717.75,66.6c-.08.25,0,.58.17.58s.33.08.5.08c.25,0,.33-.33.25-.66-.08-.17-.17-.25-.17-.41-.08-.17-.25-.25-.33-.17-.17.17-.33.25-.41.58ZM720.89,86.77c.33-.17.91.17,1.32-.5.17-.41,0-.99-.33-.83-.5.17-.91.33-1.41.41-.58.08-1.16,0-1.82,0-.17,0-.33.25-.33.58.08.66.41.74.74.66.58,0,1.24-.08,1.82-.33ZM718.83,77.68c.08.25.25.33.41.33s.33,0,.41.08c.17,0,.33,0,.41.08.25,0,.41.17.58.33.33.25.66.58,1.07.66.41.17.83.08,1.24-.33.08-.17.17-.41.17-.66v-.58c-.08-.83-.83-.41-1.16-.33-.5.17-.99.41-1.49.17-.41-.17-.83-.66-1.24-.66-.08,0-.25.08-.33.25-.17.17-.17.41-.08.66ZM719.74,57.35c0,.17.08.33.17.5,0,.08.08.08.08.08.33-.08.66-.08.99-.08.08-.08.17-.17,0-.25-.33-.25-.66-.66-1.24-.41,0,0-.08.08,0,.17ZM721.47,71.64c-.25-.08-.58-.17-.83-.17-.17-.08-.33.17-.33.5v.41c0,.25.08.5.25.5.41,0,.83.08,1.07-.33.25-.33.08-.91-.17-.91ZM721.47,63.13c0,.25.08.41.25.41s.5,0,.66-.17c.08-.08.17-.25.17-.41-.08-.25-.17-.17-.25-.17-.25.08-.41,0-.66,0-.08,0-.17.17-.17.33ZM722.55,93.13c-.41-.25-.74-.33-.83.74.33.25.58.08.91-.25.08-.08.08-.41-.08-.5ZM729.82,79.99c.08-.91-2.98-.5-3.22-.41-.91.17-1.82.25-2.81.58-.08,0-.25.08-.33.17-.33.33-.5.99-.66,1.57-.25.66-.5,1.65,0,1.9.17.08.41-.08.5-.33.08-.25.17-.58.33-.83.74-2.07,1.98-.99,3.06-1.32.33-.08.66-.41.99-.5.08,0,.08-.08.17-.08.5-.08.99,0,1.41-.08.17,0,.25,0,.41-.08.08-.08.17-.33.17-.58ZM724.86,89.25c-.5-.5-.91-1.49-1.65-.91-.08.08-.08.17-.08.33.08.33.17.74.25,1.16,0,.08.08.17.17.17.41-.08.83-.17,1.24-.25.17,0,.17-.33.08-.5ZM724.36,77.35l.08.08c.08.17.25.25.33.25,0,.08-.08.08-.08.08l.17-.08h-.08c1.41-.33,2.81.17,4.13-.08.33,0,.58-.08.83-.33,0,0,.08-.08.08-.17,0-.17-.08-.25-.17-.33-.25-.17-.58-.25-.91-.25-.25.08-.58.17-.91.08-.17-.08-.41-.25-.58-.41-.25-.08-.41-.17-.66-.25-.08,0-.25,0-.41.17-.17.08-.25.25-.33.41-.41.5-.91.25-1.32.5-.08.08-.17.17-.17.33ZM727.09,83.96c-.33-.08-.58,0-.83.25-.17.25-.08.83.17.83.25.08.58.08.74-.25.25-.25.17-.74-.08-.83ZM735.77,74.54c.66-.08,1.24-.5,1.74-.66.66-.25,1.16-.5,1.65-.83.58-.33,1.16-.58,1.57-1.07.41-.5.66-1.07.91-1.65.25-.5.33-1.16.41-1.82.08-.58.25-1.16.25-1.82s.17-1.32.08-1.9c-.17-.66-.58-1.16-.83-1.74-.25-.58-.41-1.16-.83-1.65-.41-.5-.99-.66-1.57-1.07-.5-.25-.91-.74-1.57-.91-.58-.25-1.16-.33-1.82-.41-.58-.08-1.24-.25-1.9-.25-.91,0-.91.08-1.9.08-.91,0-.91.08-1.9.08-.91,0-.91.08-1.82.08-1.07,0-1.74.74-1.74,1.74v1.98c0,.99-.25.99-.25,1.98v1.98c0,.99.17.99.17,1.98s.08.99.08,1.98-.25.99-.25,1.98.91,1.74,1.98,1.74c.91,0,.91.17,1.82.17.99,0,.99.08,1.9.08.99.08.99-.08,1.9-.08.66,0,1.32.08,1.9,0ZM732.96,81.4c-.5-.17-.74-.25-.74.74h-.08l.08.08v-.08c.25.25.5.17.74-.08.17-.17.17-.58,0-.66ZM735.11,78.34c-.41-.41-.83-.25-1.16,0-.08.08-.08.25,0,.25h1.16c.08,0,.08-.17,0-.25ZM738.83,88.59c-.83-.99-1.82-.99-2.97-.58-.17,0-.17.25-.08.33.5.41.91.74,1.07.58.66-.5,1.32-.25,1.9,0,.17.08.25-.25.08-.33ZM737.59,81.73c.5,0,.74-.66.33-.91-.33-.25-.58-.33-.83-.33-1.24,0-.99,1.24.5,1.24ZM736.84,84.7c0,.33.25.58.58.66,0,0,.08,0,.08-.08,0,0,.08,0,.08-.08,0-.17,0-.41-.17-.58-.17-.08-.41-.08-.5,0,0,.08-.08.08-.08.08l.08-.08-.08.25v-.17ZM742.71,92.39c-1.4-.66-2.81-.25-3.55,1.16-.08.08,0,.25.08.25,1.24-.41,2.31-.83,3.47-1.16.08,0,.08-.25,0-.25ZM740.48,84.54c-.08.08-.08.33,0,.41.25.17.5.08.83.08.08,0,.08-.25.08-.33-.33-.41-.5-.5-.91-.17ZM740.97,79.41c.25.17.33.25.41.25.17,0,.25-.08.41-.17v-.33s0-.08-.08-.08c-.17.08-.41.08-.74.17-.08,0-.08.17,0,.17ZM742.63,88.17q-.99-.66-1.57.58c0,.08,0,.17.08.17.74.33,1.49,0,2.15-.41.08,0,.08-.25,0-.25-.25,0-.5,0-.66-.08ZM745.35,95.03c-.83-.58-1.32-.58-2.07,0-.08.08,0,.33.08.33h1.98c.08,0,.08-.25,0-.33ZM746.68,72.55c-.08-.25-.33-.33-.5-.17-.08.17-.25.25-.33.5,0,0,.08.17.17.33.08.25.25.25.41.17,0-.08.08-.08.17-.17.08-.17.17-.41.08-.66ZM747.42,67.76c-.5-.25-.99-.58-1.4-.08-.08.17-.08.58,0,.66.5.25.91.58,1.4.08.08-.17.08-.58,0-.66ZM748.99,65.12c.08,0,.17-.08.25-.17.08-.08.08-.33.08-.5-.08-.08-.17-.17-.17-.17-.08,0-.25.17-.25.33,0,.08.08.5.08.5Z"/></g></svg>